<?xml version="1.0" encoding="UTF-8" standalone="no"?>
<svg
   width="262.27344"
   height="269.00781"
   viewBox="-4 -3 272.273 279.26413"
   version="1.1"
   id="svg410"
   sodipodi:docname="con_texto.svg"
   inkscape:version="1.2.2 (b0a8486541, 2022-12-01)"
   xmlns:inkscape="http://www.inkscape.org/namespaces/inkscape"
   xmlns:sodipodi="http://sodipodi.sourceforge.net/DTD/sodipodi-0.dtd"
   xmlns="http://www.w3.org/2000/svg"
   xmlns:svg="http://www.w3.org/2000/svg">
  <sodipodi:namedview
     id="namedview412"
     pagecolor="#ffffff"
     bordercolor="#000000"
     borderopacity="0.25"
     inkscape:showpageshadow="2"
     inkscape:pageopacity="0.0"
     inkscape:pagecheckerboard="0"
     inkscape:deskcolor="#d1d1d1"
     showgrid="false"
     inkscape:zoom="2.8287975"
     inkscape:cx="178.52109"
     inkscape:cy="136.27699"
     inkscape:window-width="1854"
     inkscape:window-height="1011"
     inkscape:window-x="66"
     inkscape:window-y="32"
     inkscape:window-maximized="1"
     inkscape:current-layer="layer1" />
  <defs
     id="defs264">
    <clipPath
       id="clip-0">
      <path
         clip-rule="nonzero"
         d="m 268.89844,350.98047 h 21.45703 v 18.97656 h -21.45703 z m 40.43359,0 h 19.59375 v 18.97656 h -19.59375 z m 0,0"
         id="path2" />
    </clipPath>
    <linearGradient
       id="linear-pattern-0"
       gradientUnits="userSpaceOnUse"
       x1="-6.89852e-06"
       y1="0"
       x2="1.0000041"
       y2="0"
       gradientTransform="matrix(60.027302,0,0,60.027302,268.89923,360.46902)">
      <stop
         offset="0"
         stop-color="rgb(1.568604%, 39.99939%, 48.626709%)"
         stop-opacity="1"
         id="stop5" />
      <stop
         offset="0.0078125"
         stop-color="rgb(1.568604%, 39.99939%, 48.626709%)"
         stop-opacity="1"
         id="stop7" />
      <stop
         offset="0.015625"
         stop-color="rgb(1.568604%, 39.607239%, 48.234558%)"
         stop-opacity="1"
         id="stop9" />
      <stop
         offset="0.0234375"
         stop-color="rgb(1.568604%, 39.607239%, 47.842407%)"
         stop-opacity="1"
         id="stop11" />
      <stop
         offset="0.03125"
         stop-color="rgb(1.568604%, 39.215088%, 47.450256%)"
         stop-opacity="1"
         id="stop13" />
      <stop
         offset="0.0390625"
         stop-color="rgb(1.568604%, 38.822937%, 47.450256%)"
         stop-opacity="1"
         id="stop15" />
      <stop
         offset="0.046875"
         stop-color="rgb(1.568604%, 38.822937%, 47.058105%)"
         stop-opacity="1"
         id="stop17" />
      <stop
         offset="0.0546875"
         stop-color="rgb(1.568604%, 38.430786%, 46.665955%)"
         stop-opacity="1"
         id="stop19" />
      <stop
         offset="0.0625"
         stop-color="rgb(1.568604%, 38.430786%, 46.273804%)"
         stop-opacity="1"
         id="stop21" />
      <stop
         offset="0.0703125"
         stop-color="rgb(1.568604%, 38.038635%, 46.273804%)"
         stop-opacity="1"
         id="stop23" />
      <stop
         offset="0.078125"
         stop-color="rgb(1.568604%, 38.038635%, 45.881653%)"
         stop-opacity="1"
         id="stop25" />
      <stop
         offset="0.0859375"
         stop-color="rgb(1.568604%, 37.646484%, 45.489502%)"
         stop-opacity="1"
         id="stop27" />
      <stop
         offset="0.09375"
         stop-color="rgb(1.568604%, 37.646484%, 45.097351%)"
         stop-opacity="1"
         id="stop29" />
      <stop
         offset="0.101562"
         stop-color="rgb(1.568604%, 37.254333%, 45.097351%)"
         stop-opacity="1"
         id="stop31" />
      <stop
         offset="0.109375"
         stop-color="rgb(1.568604%, 36.862183%, 44.7052%)"
         stop-opacity="1"
         id="stop33" />
      <stop
         offset="0.117188"
         stop-color="rgb(1.568604%, 36.862183%, 44.313049%)"
         stop-opacity="1"
         id="stop35" />
      <stop
         offset="0.125"
         stop-color="rgb(1.568604%, 36.470032%, 43.920898%)"
         stop-opacity="1"
         id="stop37" />
      <stop
         offset="0.132812"
         stop-color="rgb(1.176453%, 36.470032%, 43.920898%)"
         stop-opacity="1"
         id="stop39" />
      <stop
         offset="0.140625"
         stop-color="rgb(1.176453%, 36.077881%, 43.528748%)"
         stop-opacity="1"
         id="stop41" />
      <stop
         offset="0.148437"
         stop-color="rgb(1.176453%, 36.077881%, 43.136597%)"
         stop-opacity="1"
         id="stop43" />
      <stop
         offset="0.15625"
         stop-color="rgb(1.176453%, 35.68573%, 42.744446%)"
         stop-opacity="1"
         id="stop45" />
      <stop
         offset="0.164063"
         stop-color="rgb(1.176453%, 35.293579%, 42.744446%)"
         stop-opacity="1"
         id="stop47" />
      <stop
         offset="0.171875"
         stop-color="rgb(1.176453%, 35.293579%, 42.352295%)"
         stop-opacity="1"
         id="stop49" />
      <stop
         offset="0.179688"
         stop-color="rgb(1.176453%, 34.901428%, 41.960144%)"
         stop-opacity="1"
         id="stop51" />
      <stop
         offset="0.1875"
         stop-color="rgb(1.176453%, 34.901428%, 41.567993%)"
         stop-opacity="1"
         id="stop53" />
      <stop
         offset="0.195312"
         stop-color="rgb(1.176453%, 34.509277%, 41.567993%)"
         stop-opacity="1"
         id="stop55" />
      <stop
         offset="0.203125"
         stop-color="rgb(1.176453%, 34.509277%, 41.175842%)"
         stop-opacity="1"
         id="stop57" />
      <stop
         offset="0.210937"
         stop-color="rgb(1.176453%, 34.117126%, 40.783691%)"
         stop-opacity="1"
         id="stop59" />
      <stop
         offset="0.21875"
         stop-color="rgb(1.176453%, 34.117126%, 40.391541%)"
         stop-opacity="1"
         id="stop61" />
      <stop
         offset="0.226563"
         stop-color="rgb(1.176453%, 33.724976%, 40.391541%)"
         stop-opacity="1"
         id="stop63" />
      <stop
         offset="0.234375"
         stop-color="rgb(1.176453%, 33.332825%, 39.99939%)"
         stop-opacity="1"
         id="stop65" />
      <stop
         offset="0.242188"
         stop-color="rgb(1.176453%, 33.332825%, 39.607239%)"
         stop-opacity="1"
         id="stop67" />
      <stop
         offset="0.25"
         stop-color="rgb(1.176453%, 32.940674%, 39.215088%)"
         stop-opacity="1"
         id="stop69" />
      <stop
         offset="0.257812"
         stop-color="rgb(1.176453%, 32.940674%, 39.215088%)"
         stop-opacity="1"
         id="stop71" />
      <stop
         offset="0.265625"
         stop-color="rgb(1.176453%, 32.548523%, 38.822937%)"
         stop-opacity="1"
         id="stop73" />
      <stop
         offset="0.273438"
         stop-color="rgb(1.176453%, 32.548523%, 38.430786%)"
         stop-opacity="1"
         id="stop75" />
      <stop
         offset="0.28125"
         stop-color="rgb(1.176453%, 32.156372%, 38.038635%)"
         stop-opacity="1"
         id="stop77" />
      <stop
         offset="0.289062"
         stop-color="rgb(1.176453%, 31.764221%, 38.038635%)"
         stop-opacity="1"
         id="stop79" />
      <stop
         offset="0.296875"
         stop-color="rgb(1.176453%, 31.764221%, 37.646484%)"
         stop-opacity="1"
         id="stop81" />
      <stop
         offset="0.304687"
         stop-color="rgb(1.176453%, 31.37207%, 37.254333%)"
         stop-opacity="1"
         id="stop83" />
      <stop
         offset="0.3125"
         stop-color="rgb(1.176453%, 31.37207%, 36.862183%)"
         stop-opacity="1"
         id="stop85" />
      <stop
         offset="0.320313"
         stop-color="rgb(1.176453%, 30.979919%, 36.862183%)"
         stop-opacity="1"
         id="stop87" />
      <stop
         offset="0.328125"
         stop-color="rgb(1.176453%, 30.979919%, 36.470032%)"
         stop-opacity="1"
         id="stop89" />
      <stop
         offset="0.335938"
         stop-color="rgb(1.176453%, 30.587769%, 36.077881%)"
         stop-opacity="1"
         id="stop91" />
      <stop
         offset="0.34375"
         stop-color="rgb(1.176453%, 30.587769%, 35.68573%)"
         stop-opacity="1"
         id="stop93" />
      <stop
         offset="0.351562"
         stop-color="rgb(1.176453%, 30.195618%, 35.68573%)"
         stop-opacity="1"
         id="stop95" />
      <stop
         offset="0.359375"
         stop-color="rgb(1.176453%, 29.803467%, 35.293579%)"
         stop-opacity="1"
         id="stop97" />
      <stop
         offset="0.367188"
         stop-color="rgb(1.176453%, 29.803467%, 34.901428%)"
         stop-opacity="1"
         id="stop99" />
      <stop
         offset="0.375"
         stop-color="rgb(1.176453%, 29.411316%, 34.509277%)"
         stop-opacity="1"
         id="stop101" />
      <stop
         offset="0.382812"
         stop-color="rgb(0.784302%, 29.411316%, 34.509277%)"
         stop-opacity="1"
         id="stop103" />
      <stop
         offset="0.390625"
         stop-color="rgb(0.784302%, 29.019165%, 34.117126%)"
         stop-opacity="1"
         id="stop105" />
      <stop
         offset="0.398438"
         stop-color="rgb(0.784302%, 29.019165%, 33.724976%)"
         stop-opacity="1"
         id="stop107" />
      <stop
         offset="0.40625"
         stop-color="rgb(0.784302%, 28.627014%, 33.332825%)"
         stop-opacity="1"
         id="stop109" />
      <stop
         offset="0.414062"
         stop-color="rgb(0.784302%, 28.234863%, 33.332825%)"
         stop-opacity="1"
         id="stop111" />
      <stop
         offset="0.421875"
         stop-color="rgb(0.784302%, 28.234863%, 32.940674%)"
         stop-opacity="1"
         id="stop113" />
      <stop
         offset="0.429687"
         stop-color="rgb(0.784302%, 27.842712%, 32.548523%)"
         stop-opacity="1"
         id="stop115" />
      <stop
         offset="0.4375"
         stop-color="rgb(0.784302%, 27.842712%, 32.156372%)"
         stop-opacity="1"
         id="stop117" />
      <stop
         offset="0.445313"
         stop-color="rgb(0.784302%, 27.450562%, 32.156372%)"
         stop-opacity="1"
         id="stop119" />
      <stop
         offset="0.453125"
         stop-color="rgb(0.784302%, 27.450562%, 31.764221%)"
         stop-opacity="1"
         id="stop121" />
      <stop
         offset="0.460938"
         stop-color="rgb(0.784302%, 27.058411%, 31.37207%)"
         stop-opacity="1"
         id="stop123" />
      <stop
         offset="0.46875"
         stop-color="rgb(0.784302%, 27.058411%, 30.979919%)"
         stop-opacity="1"
         id="stop125" />
      <stop
         offset="0.476562"
         stop-color="rgb(0.784302%, 26.66626%, 30.979919%)"
         stop-opacity="1"
         id="stop127" />
      <stop
         offset="0.484375"
         stop-color="rgb(0.784302%, 26.274109%, 30.587769%)"
         stop-opacity="1"
         id="stop129" />
      <stop
         offset="0.492188"
         stop-color="rgb(0.784302%, 26.274109%, 30.195618%)"
         stop-opacity="1"
         id="stop131" />
      <stop
         offset="0.5"
         stop-color="rgb(0.784302%, 25.881958%, 29.803467%)"
         stop-opacity="1"
         id="stop133" />
      <stop
         offset="0.507812"
         stop-color="rgb(0.784302%, 25.881958%, 29.803467%)"
         stop-opacity="1"
         id="stop135" />
      <stop
         offset="0.515625"
         stop-color="rgb(0.784302%, 26.274109%, 30.195618%)"
         stop-opacity="1"
         id="stop137" />
      <stop
         offset="0.523438"
         stop-color="rgb(0.784302%, 26.274109%, 30.587769%)"
         stop-opacity="1"
         id="stop139" />
      <stop
         offset="0.53125"
         stop-color="rgb(0.784302%, 26.66626%, 30.979919%)"
         stop-opacity="1"
         id="stop141" />
      <stop
         offset="0.539062"
         stop-color="rgb(0.784302%, 27.058411%, 30.979919%)"
         stop-opacity="1"
         id="stop143" />
      <stop
         offset="0.546875"
         stop-color="rgb(0.784302%, 27.058411%, 31.37207%)"
         stop-opacity="1"
         id="stop145" />
      <stop
         offset="0.554688"
         stop-color="rgb(0.784302%, 27.450562%, 31.764221%)"
         stop-opacity="1"
         id="stop147" />
      <stop
         offset="0.5625"
         stop-color="rgb(0.784302%, 27.450562%, 32.156372%)"
         stop-opacity="1"
         id="stop149" />
      <stop
         offset="0.570312"
         stop-color="rgb(0.784302%, 27.842712%, 32.156372%)"
         stop-opacity="1"
         id="stop151" />
      <stop
         offset="0.578125"
         stop-color="rgb(0.784302%, 27.842712%, 32.548523%)"
         stop-opacity="1"
         id="stop153" />
      <stop
         offset="0.585937"
         stop-color="rgb(0.784302%, 28.234863%, 32.940674%)"
         stop-opacity="1"
         id="stop155" />
      <stop
         offset="0.59375"
         stop-color="rgb(0.784302%, 28.234863%, 33.332825%)"
         stop-opacity="1"
         id="stop157" />
      <stop
         offset="0.601562"
         stop-color="rgb(0.784302%, 28.627014%, 33.332825%)"
         stop-opacity="1"
         id="stop159" />
      <stop
         offset="0.609375"
         stop-color="rgb(0.784302%, 29.019165%, 33.724976%)"
         stop-opacity="1"
         id="stop161" />
      <stop
         offset="0.617187"
         stop-color="rgb(0.784302%, 29.019165%, 34.117126%)"
         stop-opacity="1"
         id="stop163" />
      <stop
         offset="0.625"
         stop-color="rgb(0.784302%, 29.411316%, 34.509277%)"
         stop-opacity="1"
         id="stop165" />
      <stop
         offset="0.632813"
         stop-color="rgb(1.176453%, 29.411316%, 34.509277%)"
         stop-opacity="1"
         id="stop167" />
      <stop
         offset="0.640625"
         stop-color="rgb(1.176453%, 29.803467%, 34.901428%)"
         stop-opacity="1"
         id="stop169" />
      <stop
         offset="0.648438"
         stop-color="rgb(1.176453%, 29.803467%, 35.293579%)"
         stop-opacity="1"
         id="stop171" />
      <stop
         offset="0.65625"
         stop-color="rgb(1.176453%, 30.195618%, 35.68573%)"
         stop-opacity="1"
         id="stop173" />
      <stop
         offset="0.664063"
         stop-color="rgb(1.176453%, 30.587769%, 35.68573%)"
         stop-opacity="1"
         id="stop175" />
      <stop
         offset="0.671875"
         stop-color="rgb(1.176453%, 30.587769%, 36.077881%)"
         stop-opacity="1"
         id="stop177" />
      <stop
         offset="0.679688"
         stop-color="rgb(1.176453%, 30.979919%, 36.470032%)"
         stop-opacity="1"
         id="stop179" />
      <stop
         offset="0.6875"
         stop-color="rgb(1.176453%, 30.979919%, 36.862183%)"
         stop-opacity="1"
         id="stop181" />
      <stop
         offset="0.695312"
         stop-color="rgb(1.176453%, 31.37207%, 36.862183%)"
         stop-opacity="1"
         id="stop183" />
      <stop
         offset="0.703125"
         stop-color="rgb(1.176453%, 31.37207%, 37.254333%)"
         stop-opacity="1"
         id="stop185" />
      <stop
         offset="0.710938"
         stop-color="rgb(1.176453%, 31.764221%, 37.646484%)"
         stop-opacity="1"
         id="stop187" />
      <stop
         offset="0.71875"
         stop-color="rgb(1.176453%, 31.764221%, 38.038635%)"
         stop-opacity="1"
         id="stop189" />
      <stop
         offset="0.726562"
         stop-color="rgb(1.176453%, 32.156372%, 38.038635%)"
         stop-opacity="1"
         id="stop191" />
      <stop
         offset="0.734375"
         stop-color="rgb(1.176453%, 32.548523%, 38.430786%)"
         stop-opacity="1"
         id="stop193" />
      <stop
         offset="0.742188"
         stop-color="rgb(1.176453%, 32.548523%, 38.822937%)"
         stop-opacity="1"
         id="stop195" />
      <stop
         offset="0.75"
         stop-color="rgb(1.176453%, 32.940674%, 39.215088%)"
         stop-opacity="1"
         id="stop197" />
      <stop
         offset="0.757812"
         stop-color="rgb(1.176453%, 32.940674%, 39.215088%)"
         stop-opacity="1"
         id="stop199" />
      <stop
         offset="0.765625"
         stop-color="rgb(1.176453%, 33.332825%, 39.607239%)"
         stop-opacity="1"
         id="stop201" />
      <stop
         offset="0.773438"
         stop-color="rgb(1.176453%, 33.332825%, 39.99939%)"
         stop-opacity="1"
         id="stop203" />
      <stop
         offset="0.78125"
         stop-color="rgb(1.176453%, 33.724976%, 40.391541%)"
         stop-opacity="1"
         id="stop205" />
      <stop
         offset="0.789062"
         stop-color="rgb(1.176453%, 34.117126%, 40.391541%)"
         stop-opacity="1"
         id="stop207" />
      <stop
         offset="0.796875"
         stop-color="rgb(1.176453%, 34.117126%, 40.783691%)"
         stop-opacity="1"
         id="stop209" />
      <stop
         offset="0.804688"
         stop-color="rgb(1.176453%, 34.509277%, 41.175842%)"
         stop-opacity="1"
         id="stop211" />
      <stop
         offset="0.8125"
         stop-color="rgb(1.176453%, 34.509277%, 41.567993%)"
         stop-opacity="1"
         id="stop213" />
      <stop
         offset="0.820312"
         stop-color="rgb(1.176453%, 34.901428%, 41.567993%)"
         stop-opacity="1"
         id="stop215" />
      <stop
         offset="0.828125"
         stop-color="rgb(1.176453%, 34.901428%, 41.960144%)"
         stop-opacity="1"
         id="stop217" />
      <stop
         offset="0.835937"
         stop-color="rgb(1.176453%, 35.293579%, 42.352295%)"
         stop-opacity="1"
         id="stop219" />
      <stop
         offset="0.84375"
         stop-color="rgb(1.176453%, 35.293579%, 42.744446%)"
         stop-opacity="1"
         id="stop221" />
      <stop
         offset="0.851562"
         stop-color="rgb(1.176453%, 35.68573%, 42.744446%)"
         stop-opacity="1"
         id="stop223" />
      <stop
         offset="0.859375"
         stop-color="rgb(1.176453%, 36.077881%, 43.136597%)"
         stop-opacity="1"
         id="stop225" />
      <stop
         offset="0.867187"
         stop-color="rgb(1.176453%, 36.077881%, 43.528748%)"
         stop-opacity="1"
         id="stop227" />
      <stop
         offset="0.875"
         stop-color="rgb(1.176453%, 36.470032%, 43.920898%)"
         stop-opacity="1"
         id="stop229" />
      <stop
         offset="0.882813"
         stop-color="rgb(1.568604%, 36.470032%, 43.920898%)"
         stop-opacity="1"
         id="stop231" />
      <stop
         offset="0.890625"
         stop-color="rgb(1.568604%, 36.862183%, 44.313049%)"
         stop-opacity="1"
         id="stop233" />
      <stop
         offset="0.898438"
         stop-color="rgb(1.568604%, 36.862183%, 44.7052%)"
         stop-opacity="1"
         id="stop235" />
      <stop
         offset="0.90625"
         stop-color="rgb(1.568604%, 37.254333%, 45.097351%)"
         stop-opacity="1"
         id="stop237" />
      <stop
         offset="0.914063"
         stop-color="rgb(1.568604%, 37.646484%, 45.097351%)"
         stop-opacity="1"
         id="stop239" />
      <stop
         offset="0.921875"
         stop-color="rgb(1.568604%, 37.646484%, 45.489502%)"
         stop-opacity="1"
         id="stop241" />
      <stop
         offset="0.929688"
         stop-color="rgb(1.568604%, 38.038635%, 45.881653%)"
         stop-opacity="1"
         id="stop243" />
      <stop
         offset="0.9375"
         stop-color="rgb(1.568604%, 38.038635%, 46.273804%)"
         stop-opacity="1"
         id="stop245" />
      <stop
         offset="0.945312"
         stop-color="rgb(1.568604%, 38.430786%, 46.273804%)"
         stop-opacity="1"
         id="stop247" />
      <stop
         offset="0.953125"
         stop-color="rgb(1.568604%, 38.430786%, 46.665955%)"
         stop-opacity="1"
         id="stop249" />
      <stop
         offset="0.960938"
         stop-color="rgb(1.568604%, 38.822937%, 47.058105%)"
         stop-opacity="1"
         id="stop251" />
      <stop
         offset="0.96875"
         stop-color="rgb(1.568604%, 38.822937%, 47.450256%)"
         stop-opacity="1"
         id="stop253" />
      <stop
         offset="0.976562"
         stop-color="rgb(1.568604%, 39.215088%, 47.450256%)"
         stop-opacity="1"
         id="stop255" />
      <stop
         offset="0.984375"
         stop-color="rgb(1.568604%, 39.607239%, 47.842407%)"
         stop-opacity="1"
         id="stop257" />
      <stop
         offset="0.992188"
         stop-color="rgb(1.568604%, 39.607239%, 48.234558%)"
         stop-opacity="1"
         id="stop259" />
      <stop
         offset="1"
         stop-color="rgb(1.568604%, 39.99939%, 48.626709%)"
         stop-opacity="1"
         id="stop261" />
    </linearGradient>
  </defs>
  <g
     inkscape:groupmode="layer"
     id="layer1"
     inkscape:label="Layer 1">
    <rect
       style="fill:#ffffff;stroke-width:1.96181;stroke-linecap:round;stop-color:#000000;fill-opacity:0.51529533"
       id="rect1248"
       width="272.27301"
       height="126.25214"
       x="-4"
       y="150.01199"
       rx="2.6688852"
       ry="2.6688852" />
  </g>
  <g
     id="g971"
     inkscape:label="texto">
    <path
       fill-rule="nonzero"
       fill="#04667c"
       fill-opacity="1"
       d="m 8.14453,197.09766 c 0,-1.82031 -0.83203,-2.6875 -2.09766,-2.6875 -1.26171,0 -2.09375,0.86719 -2.09375,2.6875 v 9.52735 c 0,1.82031 0.83204,2.6875 2.09375,2.6875 1.26563,0 2.09766,-0.86719 2.09766,-2.6875 z m 0.11719,14.94141 v -1.33985 c -0.39453,1.02735 -1.73828,1.66016 -2.96485,1.66016 -3.20312,0 -4.70312,-1.98047 -4.70312,-5.53516 v -9.92578 c 0,-3.55859 1.5,-5.53515 4.70312,-5.53515 1.14844,0 2.49219,0.67187 2.84766,1.58203 v -8.26172 h 3.35938 v 27.35547 z m 0,0"
       id="path266" />
    <path
       fill-rule="nonzero"
       fill="#b3b3b3"
       fill-opacity="1"
       d="m 20.75391,197.09766 c 0,-1.82031 -0.78907,-2.6875 -2.05469,-2.6875 -1.26563,0 -2.05469,0.86719 -2.05469,2.6875 v 3.00391 h 4.10938 z m -2.01563,15.26172 c -3.39844,0 -5.45703,-2.01953 -5.45703,-5.53516 v -9.92578 c 0,-3.51953 2.01953,-5.53515 5.41797,-5.53515 3.40234,0 5.45703,2.01562 5.45703,5.53515 v 5.89063 h -7.51172 v 3.83594 c 0,1.82031 0.82813,2.6875 2.09375,2.6875 1.26563,0 2.05469,-0.86719 2.05469,-2.6875 v -1.14454 h 3.36328 v 1.34375 c 0,3.51563 -2.01563,5.53516 -5.41797,5.53516"
       id="path268" />
    <path
       fill-rule="nonzero"
       fill="#b3b3b3"
       fill-opacity="1"
       d="m 33.44531,197.09766 c 0,-1.82031 -0.82812,-2.6875 -2.09375,-2.6875 -1.26562,0 -2.09375,0.86719 -2.09375,2.6875 v 9.52735 c 0,1.82031 0.82813,2.6875 2.09375,2.6875 1.26563,0 2.09375,-0.86719 2.09375,-2.6875 z m -1.34375,15.26172 c -1.14453,0 -2.49219,-0.67187 -2.84375,-1.58203 v 8.77734 h -3.36328 v -27.875 h 3.24219 v 1.34375 c 0.39453,-1.02734 1.73828,-1.66015 2.96484,-1.66015 3.20313,0 4.70313,1.97656 4.70313,5.53515 v 9.92578 c 0,3.55469 -1.5,5.53516 -4.70313,5.53516"
       id="path270" />
    <path
       fill-rule="nonzero"
       fill="#b3b3b3"
       fill-opacity="1"
       d="m 46.01953,197.09766 c 0,-1.82031 -0.83203,-2.6875 -2.09766,-2.6875 -1.26171,0 -2.09375,0.86719 -2.09375,2.6875 v 9.52735 c 0,1.82031 0.83204,2.6875 2.09375,2.6875 1.26563,0 2.09766,-0.86719 2.09766,-2.6875 z m 0.11719,14.94141 v -1.33985 c -0.39453,1.02735 -1.73828,1.66016 -2.96485,1.66016 -3.20312,0 -4.70312,-1.98047 -4.70312,-5.53516 v -9.92578 c 0,-3.55859 1.5,-5.53515 4.70312,-5.53515 1.22657,0 2.57032,0.63281 2.96485,1.66015 v -1.34375 h 3.24219 v 20.35938 z m 0,0"
       id="path272" />
    <path
       fill-rule="nonzero"
       fill="#b3b3b3"
       fill-opacity="1"
       d="m 59.30469,200.02344 v -2.92578 c 0,-1.82031 -0.63282,-2.6875 -1.85938,-2.6875 -1.1875,0 -1.85937,0.86719 -1.85937,2.6875 v 14.94531 h -3.35938 v -20.36328 h 3.24219 v 1.26563 c 0.35547,-0.91016 1.66016,-1.58203 2.80859,-1.58203 3.20313,0 4.38672,1.97656 4.38672,5.53515 v 3.125 z m 0,0"
       id="path274" />
    <path
       fill-rule="nonzero"
       fill="#b3b3b3"
       fill-opacity="1"
       d="m 69.82031,212.35938 c -3.39844,0 -5.21875,-2.05859 -5.21875,-5.53516 v -19.96875 h 3.35938 v 4.82422 H 74.25 v 3.04688 h -6.28906 v 11.89844 c 0,1.82031 0.63281,2.6875 1.85937,2.6875 1.1875,0 1.85938,-0.86719 1.85938,-2.6875 v -3.20313 h 3.35937 v 3.40234 c 0,3.47657 -1.82031,5.53516 -5.21875,5.53516"
       id="path276" />
    <path
       fill-rule="nonzero"
       fill="#b3b3b3"
       fill-opacity="1"
       d="m 84.36719,197.09766 c 0,-1.82031 -0.82813,-2.6875 -2.09375,-2.6875 -1.26563,0 -2.09375,0.86719 -2.09375,2.6875 v 9.52735 c 0,1.82031 0.82812,2.6875 2.09375,2.6875 1.26562,0 2.09375,-0.86719 2.09375,-2.6875 z m 0.12109,14.94141 v -1.33985 c -0.39453,1.02735 -1.74219,1.66016 -2.96484,1.66016 -3.20313,0 -4.70703,-1.98047 -4.70703,-5.53516 v -9.92578 c 0,-3.55859 1.5039,-5.53515 4.70703,-5.53515 1.22265,0 2.57031,0.63281 2.96484,1.66015 v -1.34375 h 3.24219 v 20.35938 z m 0,0"
       id="path278" />
    <path
       fill-rule="nonzero"
       fill="#b3b3b3"
       fill-opacity="1"
       d="m 104.73047,212.04297 v -14.94531 c 0,-1.82031 -0.63281,-2.6875 -1.85938,-2.6875 -1.18359,0 -1.85937,0.86719 -1.85937,2.6875 v 14.94531 h -3.35938 v -14.94531 c 0,-1.82031 -0.63281,-2.6875 -1.85937,-2.6875 -1.1836,0 -1.85547,0.86719 -1.85547,2.6875 v 14.94531 h -3.35938 v -20.36328 h 3.23829 v 1.26563 c 0.35937,-0.91016 1.66406,-1.58203 2.80859,-1.58203 1.89844,0 2.92578,0.63281 3.55859,1.9375 0.63282,-1.22657 1.81641,-1.9375 3.51953,-1.9375 3.19922,0 4.38672,1.97656 4.38672,5.53515 v 15.14453 z m 0,0"
       id="path280" />
    <path
       fill-rule="nonzero"
       fill="#b3b3b3"
       fill-opacity="1"
       d="m 117.9375,197.09766 c 0,-1.82031 -0.79297,-2.6875 -2.05859,-2.6875 -1.26172,0 -2.05469,0.86719 -2.05469,2.6875 v 3.00391 h 4.11328 z m -2.01953,15.26172 c -3.39844,0 -5.45313,-2.01953 -5.45313,-5.53516 v -9.92578 c 0,-3.51953 2.01563,-5.53515 5.41407,-5.53515 3.40234,0 5.45703,2.01562 5.45703,5.53515 v 5.89063 h -7.51172 v 3.83594 c 0,1.82031 0.83203,2.6875 2.09375,2.6875 1.26562,0 2.05859,-0.86719 2.05859,-2.6875 v -1.14454 h 3.35938 v 1.34375 c 0,3.51563 -2.01563,5.53516 -5.41797,5.53516"
       id="path282" />
    <path
       fill-rule="nonzero"
       fill="#b3b3b3"
       fill-opacity="1"
       d="m 131.02344,212.04297 v -14.94531 c 0,-1.82031 -0.71485,-2.6875 -1.9375,-2.6875 -1.1875,0 -1.9375,0.86719 -1.9375,2.6875 v 14.94531 h -3.35938 v -20.36328 h 3.23828 v 1.26563 c 0.35938,-0.91016 1.70313,-1.58203 2.84766,-1.58203 3.20312,0 4.50781,1.97656 4.50781,5.53515 v 15.14453 z m 0,0"
       id="path284" />
    <path
       fill-rule="nonzero"
       fill="#b3b3b3"
       fill-opacity="1"
       d="m 142.21094,212.35938 c -3.39844,0 -5.21875,-2.05859 -5.21875,-5.53516 v -19.96875 h 3.35937 v 4.82422 h 6.28906 v 3.04688 h -6.28906 v 11.89844 c 0,1.82031 0.63281,2.6875 1.85938,2.6875 1.1875,0 1.85937,-0.86719 1.85937,-2.6875 v -3.20313 h 3.35938 v 3.40234 c 0,3.47657 -1.82032,5.53516 -5.21875,5.53516"
       id="path286" />
    <path
       fill-rule="nonzero"
       fill="#b3b3b3"
       fill-opacity="1"
       d="m 156.64062,197.09766 c 0,-1.82031 -0.83203,-2.6875 -2.09375,-2.6875 -1.26562,0 -2.09765,0.86719 -2.09765,2.6875 v 9.52735 c 0,1.82031 0.83203,2.6875 2.09765,2.6875 1.26172,0 2.09375,-0.86719 2.09375,-2.6875 z m -2.09375,15.26172 c -3.40234,0 -5.45703,-2.01953 -5.45703,-5.53516 v -9.92578 c 0,-3.51953 2.05469,-5.53515 5.45703,-5.53515 3.39844,0 5.45313,2.01562 5.45313,5.53515 v 9.92578 c 0,3.51563 -2.05469,5.53516 -5.45313,5.53516"
       id="path288" />
    <path
       fill-rule="nonzero"
       fill="#b3b3b3"
       fill-opacity="1"
       d="m 176.13281,197.09766 c 0,-1.82031 -0.83203,-2.6875 -2.09765,-2.6875 -1.26172,0 -2.09375,0.86719 -2.09375,2.6875 v 9.52735 c 0,1.82031 0.83203,2.6875 2.09375,2.6875 1.26562,0 2.09765,-0.86719 2.09765,-2.6875 z m 0.11719,14.94141 v -1.33985 c -0.39453,1.02735 -1.73828,1.66016 -2.96484,1.66016 -3.20313,0 -4.70313,-1.98047 -4.70313,-5.53516 v -9.92578 c 0,-3.55859 1.5,-5.53515 4.70313,-5.53515 1.14453,0 2.49218,0.67187 2.84765,1.58203 v -8.26172 h 3.35938 v 27.35547 z m 0,0"
       id="path290" />
    <path
       fill-rule="nonzero"
       fill="#b3b3b3"
       fill-opacity="1"
       d="m 189.45703,197.09766 c 0,-1.82031 -0.79297,-2.6875 -2.05859,-2.6875 -1.26172,0 -2.05469,0.86719 -2.05469,2.6875 v 3.00391 h 4.11328 z m -2.01953,15.26172 c -3.39844,0 -5.45313,-2.01953 -5.45313,-5.53516 v -9.92578 c 0,-3.51953 2.01563,-5.53515 5.41407,-5.53515 3.40234,0 5.45703,2.01562 5.45703,5.53515 v 5.89063 h -7.51172 v 3.83594 c 0,1.82031 0.82812,2.6875 2.09375,2.6875 1.26562,0 2.05859,-0.86719 2.05859,-2.6875 v -1.14454 h 3.35938 v 1.34375 c 0,3.51563 -2.01563,5.53516 -5.41797,5.53516"
       id="path292" />
    <path
       fill-rule="nonzero"
       fill="#04667c"
       fill-opacity="1"
       d="m 208.70703,193.57813 v -3.48047 c 0,-1.77734 -0.63281,-2.6875 -1.85547,-2.6875 -1.22656,0 -1.85937,0.8711 -1.85937,2.6875 v 6.76172 h 6.8789 v 3.00391 h -6.8789 v 12.17968 h -3.35938 v -22.14062 c 0,-3.48047 1.85547,-5.53516 5.21875,-5.53516 3.35938,0 5.21875,2.05469 5.21875,5.53516 v 3.67578 z m 0,0"
       id="path294" />
    <path
       fill-rule="nonzero"
       fill="#b3b3b3"
       fill-opacity="1"
       d="m 217.08984,189.58594 h -2.76562 l 3.4375,-5.21875 h 4.03515 z m -3.28125,2.09375 h 3.36328 v 20.36328 h -3.36328 z m 0,0"
       id="path296" />
    <path
       fill-rule="nonzero"
       fill="#b3b3b3"
       fill-opacity="1"
       d="m 224.60156,212.35938 c -3.39844,0 -5.45312,-2.01953 -5.45312,-5.53516 v -1.34375 h 3.35937 v 1.14454 c 0,1.82031 0.82813,2.72656 2.09375,2.72656 1.22656,0 2.13672,-0.78906 2.13672,-2.41016 0,-1.10547 -0.23828,-1.69922 -1.30469,-2.53125 l -3.125,-2.49219 c -1.77734,-1.42187 -2.80468,-2.60546 -2.80468,-5.13671 0,-3.40235 1.77734,-5.41797 5.09765,-5.41797 3.32031,0 5.17969,2.01562 5.17969,5.53515 v 1.38282 h -3.35938 v -1.1836 c 0,-1.69922 -0.59375,-2.73047 -1.82031,-2.73047 -1.18359,0 -1.77734,0.91016 -1.77734,2.41407 0,1.10546 0.23828,1.62109 1.30469,2.44921 l 3.12109,2.49219 c 1.78125,1.42188 2.80859,2.6875 2.80859,5.21875 0,3.39844 -2.13672,5.41797 -5.45703,5.41797"
       id="path298" />
    <path
       fill-rule="nonzero"
       fill="#b3b3b3"
       fill-opacity="1"
       d="m 232.07422,191.67969 h 3.36328 v 20.35938 h -3.36328 z m 0,-6.99609 h 3.36328 v 3.99219 h -3.36328 z m 0,0"
       id="path300" />
    <path
       fill-rule="nonzero"
       fill="#b3b3b3"
       fill-opacity="1"
       d="m 243.10547,212.35938 c -3.32031,0 -5.17969,-2.01953 -5.17969,-5.53516 v -9.88671 c 0,-3.51954 1.82031,-5.57422 5.17969,-5.57422 3.35937,0 5.17969,2.01562 5.17969,5.53515 v 1.38282 h -3.35938 v -1.1836 c 0,-1.73828 -0.55469,-2.6875 -1.82031,-2.6875 -1.26563,0 -1.81641,0.98828 -1.81641,2.6875 v 9.52735 c 0,1.73828 0.55078,2.6875 1.81641,2.6875 1.26562,0 1.82031,-0.94922 1.82031,-2.6875 v -1.14454 h 3.35938 v 1.34375 c 0,3.51563 -1.85938,5.53516 -5.17969,5.53516"
       id="path302" />
    <path
       fill-rule="nonzero"
       fill="#b3b3b3"
       fill-opacity="1"
       d="m 257.73437,197.09766 c 0,-1.82031 -0.83203,-2.6875 -2.09765,-2.6875 -1.26172,0 -2.09375,0.86719 -2.09375,2.6875 v 9.52735 c 0,1.82031 0.83203,2.6875 2.09375,2.6875 1.26562,0 2.09765,-0.86719 2.09765,-2.6875 z m 0.11719,14.94141 v -1.33985 c -0.39453,1.02735 -1.73828,1.66016 -2.96484,1.66016 -3.20313,0 -4.70313,-1.98047 -4.70313,-5.53516 v -9.92578 c 0,-3.55859 1.5,-5.53515 4.70313,-5.53515 1.22656,0 2.57031,0.63281 2.96484,1.66015 v -1.34375 h 3.24219 v 20.35938 z m 0,0"
       id="path304" />
    <path
       fill-rule="nonzero"
       fill="#b3b3b3"
       fill-opacity="1"
       d="m 5.69531,177.06251 v -1.25 c -0.39844,0.9375 -1.30859,1.47656 -2.33203,1.47656 -1.99219,0 -2.93359,-1.19531 -2.93359,-3.89844 v -10.98437 h 1.05468 v 10.98437 c 0,1.9375 0.56641,2.875 1.90625,2.875 1.44922,0 2.21875,-1.16797 2.21875,-3.1875 v -10.67187 h 1.05469 v 14.65625 z m 0,0"
       id="path306" />
    <path
       fill-rule="nonzero"
       fill="#b3b3b3"
       fill-opacity="1"
       d="m 14.11719,177.06251 v -10.98438 c 0,-1.93359 -0.57032,-2.875 -1.90625,-2.875 -1.44922,0 -2.21875,1.16797 -2.21875,3.1875 v 10.67188 H 8.9375 v -14.65625 h 0.96875 v 1.2539 c 0.39844,-0.9414 1.30859,-1.48047 2.33203,-1.48047 1.99219,0 2.93359,1.19532 2.93359,3.89844 v 10.98438 z m 0,0"
       id="path308" />
    <path
       fill-rule="nonzero"
       fill="#b3b3b3"
       fill-opacity="1"
       d="m 17.33203,162.40626 h 1.05469 v 14.65625 h -1.05469 z m 0,-5.09375 h 1.05469 v 2.61718 h -1.05469 z m 0,0"
       id="path310" />
    <path
       fill-rule="nonzero"
       fill="#b3b3b3"
       fill-opacity="1"
       d="m 23.30469,177.06251 h -0.91016 l -2.78906,-14.65625 h 1.08203 l 1.82031,10.16015 c 0.23047,1.28125 0.34375,3.10156 0.34375,3.10156 0,0 0.11328,-1.82031 0.33985,-3.10156 l 1.90625,-10.16015 h 1.05468 z m 0,0"
       id="path312" />
    <path
       fill-rule="nonzero"
       fill="#b3b3b3"
       fill-opacity="1"
       d="m 32.38281,166.07813 c 0,-1.85156 -0.82422,-2.875 -2.1914,-2.875 -1.36329,0 -2.19141,1.02344 -2.19141,2.875 v 2.76172 h 4.38281 z m -2.1914,11.21094 c -1.90625,0 -3.24219,-1.27735 -3.24219,-3.89844 v -7.3125 c 0,-2.61719 1.33594,-3.89844 3.24219,-3.89844 1.91015,0 3.24609,1.28125 3.24609,3.89844 v 3.78516 H 28 v 3.52734 c 0,1.85156 0.82812,2.875 2.19141,2.875 1.36718,0 2.1914,-1.02344 2.1914,-2.875 v -0.39844 h 1.05469 v 0.39844 c 0,2.62109 -1.33594,3.89844 -3.24609,3.89844"
       id="path314" />
    <path
       fill-rule="nonzero"
       fill="#b3b3b3"
       fill-opacity="1"
       d="m 40.57812,168.46876 v -2.39063 c 0,-1.93359 -0.57031,-2.875 -1.90625,-2.875 -1.45312,0 -2.22265,1.16797 -2.22265,3.1875 v 10.67188 h -1.05078 v -14.65625 h 0.96484 v 1.2539 c 0.40234,-0.9414 1.3125,-1.48047 2.33594,-1.48047 1.99219,0 2.92969,1.19532 2.92969,3.89844 v 2.39063 z m 0,0"
       id="path316" />
    <path
       fill-rule="nonzero"
       fill="#b3b3b3"
       fill-opacity="1"
       d="m 47.51953,166.33594 v -0.74218 c 0,-1.36329 -0.62891,-2.39063 -1.87891,-2.39063 -1.2539,0 -1.99218,0.91016 -1.99218,2.33594 0,1.07812 0.45312,1.84765 1.22265,2.55859 l 2.30469,2.10547 c 0.99609,0.91016 1.625,1.9375 1.625,3.5 0,2.13672 -1.19531,3.58594 -3.21875,3.58594 -2.30469,0 -3.15625,-1.70703 -3.15625,-3.69922 v -0.59766 h 1.05078 v 0.59766 c 0,1.65234 0.74219,2.70312 2.10547,2.70312 1.36719,0 2.13672,-1.02343 2.13672,-2.58984 0,-1.07812 -0.45703,-1.93359 -1.22266,-2.64453 l -2.30859,-2.10547 c -0.99219,-0.91016 -1.62109,-1.85156 -1.62109,-3.41406 0,-2.05078 1.10937,-3.35938 3.07421,-3.35938 1.9375,0 2.92969,1.36719 2.92969,3.41407 v 0.74218 z m 0,0"
       id="path318" />
    <path
       fill-rule="nonzero"
       fill="#b3b3b3"
       fill-opacity="1"
       d="m 50.39062,162.40626 h 1.05469 v 14.65625 h -1.05469 z m 0,-5.09375 h 1.05469 v 2.61718 h -1.05469 z m 0,0"
       id="path320" />
    <path
       fill-rule="nonzero"
       fill="#b3b3b3"
       fill-opacity="1"
       d="m 58.95703,166.07813 c 0,-1.85156 -0.85547,-2.875 -2.22266,-2.875 -1.36328,0 -2.16015,1.02344 -2.16015,2.875 v 7.3125 c 0,1.85156 0.79687,2.875 2.16015,2.875 1.36719,0 2.22266,-1.02344 2.22266,-2.875 z m 0.082,10.98438 v -1.25391 c -0.39453,0.94141 -1.30859,1.48047 -2.33203,1.48047 -1.90625,0 -3.1875,-1.27735 -3.1875,-3.89844 v -7.3125 c 0,-2.61719 1.30859,-3.89844 3.21484,-3.89844 0.96875,0 1.87891,0.48438 2.22266,1.3086 v -6.11719 h 1.05078 v 19.69141 z m 0,0"
       id="path322" />
    <path
       fill-rule="nonzero"
       fill="#b3b3b3"
       fill-opacity="1"
       d="m 67.51953,166.07813 c 0,-1.85156 -0.85547,-2.875 -2.21875,-2.875 -1.36719,0 -2.16406,1.02344 -2.16406,2.875 v 7.3125 c 0,1.85156 0.79687,2.875 2.16406,2.875 1.36328,0 2.21875,-1.02344 2.21875,-2.875 z m 0.0859,10.98438 v -1.25391 c -0.39844,0.94141 -1.3125,1.48047 -2.33594,1.48047 -1.90625,0 -3.1875,-1.27735 -3.1875,-3.89844 v -7.3125 c 0,-2.61719 1.28125,-3.89844 3.1875,-3.89844 1.02344,0 1.9375,0.53907 2.33594,1.48047 v -1.2539 h 0.96875 v 14.65625 z m 0,0"
       id="path324" />
    <path
       fill-rule="nonzero"
       fill="#b3b3b3"
       fill-opacity="1"
       d="m 76.08203,166.07813 c 0,-1.85156 -0.85156,-2.875 -2.21875,-2.875 -1.36719,0 -2.16406,1.02344 -2.16406,2.875 v 7.3125 c 0,1.85156 0.79687,2.875 2.16406,2.875 1.36719,0 2.21875,-1.02344 2.21875,-2.875 z m 0.0859,10.98438 v -1.25391 c -0.39844,0.94141 -1.3086,1.48047 -2.33594,1.48047 -1.90234,0 -3.18359,-1.27735 -3.18359,-3.89844 v -7.3125 c 0,-2.61719 1.30859,-3.89844 3.21484,-3.89844 0.96484,0 1.87891,0.48438 2.21875,1.3086 v -6.11719 h 1.05469 v 19.69141 z m 0,0"
       id="path326" />
    <path
       fill-rule="nonzero"
       fill="#b3b3b3"
       fill-opacity="1"
       d="m 89.19922,166.07813 c 0,-1.85156 -0.85547,-2.875 -2.22266,-2.875 -1.36328,0 -2.16015,1.02344 -2.16015,2.875 v 7.3125 c 0,1.85156 0.79687,2.875 2.16015,2.875 1.36719,0 2.22266,-1.02344 2.22266,-2.875 z m 0.08203,10.98438 v -1.25391 c -0.39453,0.94141 -1.30859,1.48047 -2.33203,1.48047 -1.90625,0 -3.1875,-1.27735 -3.1875,-3.89844 v -7.3125 c 0,-2.61719 1.30859,-3.89844 3.21484,-3.89844 0.96875,0 1.87891,0.48438 2.22266,1.3086 V 157.3711 H 90.25 v 19.69141 z m 0,0"
       id="path328" />
    <path
       fill-rule="nonzero"
       fill="#b3b3b3"
       fill-opacity="1"
       d="m 97.67578,166.07813 c 0,-1.85156 -0.82422,-2.875 -2.19141,-2.875 -1.36718,0 -2.1914,1.02344 -2.1914,2.875 v 2.76172 h 4.38281 z m -2.19141,11.21094 c -1.90625,0 -3.24609,-1.27735 -3.24609,-3.89844 v -7.3125 c 0,-2.61719 1.33984,-3.89844 3.24609,-3.89844 1.90625,0 3.2461,1.28125 3.2461,3.89844 v 3.78516 h -5.4375 v 3.52734 c 0,1.85156 0.82422,2.875 2.1914,2.875 1.36719,0 2.19141,-1.02344 2.19141,-2.875 v -0.39844 h 1.05469 v 0.39844 c 0,2.62109 -1.33985,3.89844 -3.2461,3.89844"
       id="path330" />
    <path
       fill-rule="nonzero"
       fill="#b3b3b3"
       fill-opacity="1"
       d="m 110.67578,166.07813 c 0,-1.85156 -0.79687,-2.875 -2.16016,-2.875 -1.36718,0 -2.22265,1.02344 -2.22265,2.875 v 7.3125 c 0,1.85156 0.85547,2.875 2.22265,2.875 1.36329,0 2.16016,-1.02344 2.16016,-2.875 z m -2.13281,11.21094 c -1.02344,0 -1.9336,-0.53906 -2.33594,-1.48047 v 1.25391 h -0.96484 V 157.3711 h 1.05078 v 6.11719 c 0.34375,-0.82422 1.2539,-1.3086 2.22265,-1.3086 1.90625,0 3.21485,1.28125 3.21485,3.89844 v 7.3125 c 0,2.62109 -1.28125,3.89844 -3.1875,3.89844"
       id="path332" />
    <path
       fill-rule="nonzero"
       fill="#b3b3b3"
       fill-opacity="1"
       d="m 118.95703,177.06251 v -1.25 c -0.39844,0.9375 -1.30859,1.47656 -2.33594,1.47656 -1.99218,0 -2.92968,-1.19531 -2.92968,-3.89844 v -10.98437 h 1.05078 v 10.98437 c 0,1.9375 0.57031,2.875 1.91015,2.875 1.44922,0 2.21875,-1.16797 2.21875,-3.1875 v -10.67187 h 1.05469 v 14.65625 z m 0,0"
       id="path334" />
    <path
       fill-rule="nonzero"
       fill="#b3b3b3"
       fill-opacity="1"
       d="m 127.34766,166.07813 c 0,-1.85156 -0.82422,-2.875 -2.1875,-2.875 -1.36719,0 -2.19532,1.02344 -2.19532,2.875 v 2.76172 h 4.38282 z m -2.1875,11.21094 c -1.91016,0 -3.2461,-1.27735 -3.2461,-3.89844 v -7.3125 c 0,-2.61719 1.33594,-3.89844 3.2461,-3.89844 1.90625,0 3.24218,1.28125 3.24218,3.89844 v 3.78516 h -5.4375 v 3.52734 c 0,1.85156 0.82813,2.875 2.19532,2.875 1.36328,0 2.1875,-1.02344 2.1875,-2.875 v -0.39844 h 1.05468 v 0.39844 c 0,2.62109 -1.33593,3.89844 -3.24218,3.89844"
       id="path336" />
    <path
       fill-rule="nonzero"
       fill="#b3b3b3"
       fill-opacity="1"
       d="m 135.54297,177.06251 v -10.98438 c 0,-1.93359 -0.57031,-2.875 -1.90625,-2.875 -1.44922,0 -2.21875,1.16797 -2.21875,3.1875 v 10.67188 h -1.05469 v -14.65625 h 0.96875 v 1.2539 c 0.39844,-0.9414 1.30859,-1.48047 2.33203,-1.48047 1.99219,0 2.9336,1.19532 2.9336,3.89844 v 10.98438 z m 0,0"
       id="path338" />
    <path
       fill-rule="nonzero"
       fill="#b3b3b3"
       fill-opacity="1"
       d="m 143.90625,166.07813 c 0,-1.85156 -0.82422,-2.875 -2.1875,-2.875 -1.36719,0 -2.19531,1.02344 -2.19531,2.875 v 7.3125 c 0,1.85156 0.82812,2.875 2.19531,2.875 1.36328,0 2.1875,-1.02344 2.1875,-2.875 z m -2.1875,11.21094 c -1.91016,0 -3.24609,-1.27735 -3.24609,-3.89844 v -7.3125 c 0,-2.61719 1.33593,-3.89844 3.24609,-3.89844 1.90625,0 3.24219,1.28125 3.24219,3.89844 v 7.3125 c 0,2.62109 -1.33594,3.89844 -3.24219,3.89844"
       id="path340" />
    <path
       fill-rule="nonzero"
       fill="#b3b3b3"
       fill-opacity="1"
       d="m 151.33203,166.33594 v -0.74218 c 0,-1.36329 -0.625,-2.39063 -1.875,-2.39063 -1.25391,0 -1.99219,0.91016 -1.99219,2.33594 0,1.07812 0.45313,1.84765 1.22266,2.55859 l 2.30469,2.10547 c 0.99609,0.91016 1.62109,1.9375 1.62109,3.5 0,2.13672 -1.19531,3.58594 -3.21484,3.58594 -2.30469,0 -3.16016,-1.70703 -3.16016,-3.69922 v -0.59766 h 1.05469 v 0.59766 c 0,1.65234 0.73828,2.70312 2.10547,2.70312 1.36718,0 2.13281,-1.02343 2.13281,-2.58984 0,-1.07812 -0.45313,-1.93359 -1.22266,-2.64453 l -2.30468,-2.10547 c -0.9961,-0.91016 -1.6211,-1.85156 -1.6211,-3.41406 0,-2.05078 1.10938,-3.35938 3.07422,-3.35938 1.93359,0 2.92969,1.36719 2.92969,3.41407 v 0.74218 z m 0,0"
       id="path342" />
    <path
       fill-rule="nonzero"
       fill="#b3b3b3"
       fill-opacity="1"
       d="m 163.99609,166.07813 c 0,-1.85156 -0.85547,-2.875 -2.22265,-2.875 -1.36328,0 -2.16016,1.02344 -2.16016,2.875 v 7.3125 c 0,1.85156 0.79688,2.875 2.16016,2.875 1.36718,0 2.22265,-1.02344 2.22265,-2.875 z m 0.082,10.98438 v -1.25391 c -0.39453,0.94141 -1.30859,1.48047 -2.33203,1.48047 -1.90625,0 -3.1875,-1.27735 -3.1875,-3.89844 v -7.3125 c 0,-2.61719 1.28125,-3.89844 3.1875,-3.89844 1.02344,0 1.9375,0.53907 2.33203,1.48047 v -1.2539 h 0.96875 v 14.65625 z m 0,0"
       id="path344" />
    <path
       fill-rule="nonzero"
       fill="#b3b3b3"
       fill-opacity="1"
       d="m 167.32031,162.40626 h 1.05469 v 14.65625 h -1.05469 z m 0,-5.09375 h 1.05469 v 2.61718 h -1.05469 z m 0,0"
       id="path346" />
    <path
       fill-rule="nonzero"
       fill="#b3b3b3"
       fill-opacity="1"
       d="m 175.82812,168.46876 v -2.39063 c 0,-1.93359 -0.5664,-2.875 -1.90625,-2.875 -1.44921,0 -2.21875,1.16797 -2.21875,3.1875 v 10.67188 h -1.05468 v -14.65625 h 0.96875 v 1.2539 c 0.39843,-0.9414 1.30859,-1.48047 2.33203,-1.48047 1.99219,0 2.93359,1.19532 2.93359,3.89844 v 2.39063 z m 0,0"
       id="path348" />
    <path
       fill-rule="nonzero"
       fill="#b3b3b3"
       fill-opacity="1"
       d="m 183.53906,166.07813 c 0,-1.85156 -0.82422,-2.875 -2.1914,-2.875 -1.36719,0 -2.19141,1.02344 -2.19141,2.875 v 2.76172 h 4.38281 z m -2.1914,11.21094 c -1.90625,0 -3.2461,-1.27735 -3.2461,-3.89844 v -7.3125 c 0,-2.61719 1.33985,-3.89844 3.2461,-3.89844 1.90625,0 3.24609,1.28125 3.24609,3.89844 v 3.78516 h -5.4375 v 3.52734 c 0,1.85156 0.82422,2.875 2.19141,2.875 1.36718,0 2.1914,-1.02344 2.1914,-2.875 v -0.39844 h 1.05469 v 0.39844 c 0,2.62109 -1.33984,3.89844 -3.24609,3.89844"
       id="path350" />
    <path
       fill-rule="nonzero"
       fill="#b3b3b3"
       fill-opacity="1"
       d="m 190.93359,166.33594 v -0.74218 c 0,-1.36329 -0.625,-2.39063 -1.875,-2.39063 -1.2539,0 -1.99218,0.91016 -1.99218,2.33594 0,1.07812 0.45312,1.84765 1.22265,2.55859 l 2.30469,2.10547 c 0.99609,0.91016 1.62109,1.9375 1.62109,3.5 0,2.13672 -1.19531,3.58594 -3.21484,3.58594 -2.30469,0 -3.16016,-1.70703 -3.16016,-3.69922 v -0.59766 h 1.05469 v 0.59766 c 0,1.65234 0.73828,2.70312 2.10547,2.70312 1.36719,0 2.13281,-1.02343 2.13281,-2.58984 0,-1.07812 -0.45312,-1.93359 -1.22265,-2.64453 l -2.30469,-2.10547 c -0.9961,-0.91016 -1.6211,-1.85156 -1.6211,-3.41406 0,-2.05078 1.10938,-3.35938 3.07422,-3.35938 1.9336,0 2.92969,1.36719 2.92969,3.41407 v 0.74218 z m 0,0"
       id="path352" />
    <path
       fill-rule="nonzero"
       fill="#b3b3b3"
       fill-opacity="1"
       d="m 198.01953,168.66797 h 4.58203 v 1.05469 h -4.58203 z m 0,0"
       id="path354" />
    <path
       fill-rule="nonzero"
       fill="#b3b3b3"
       fill-opacity="1"
       d="m 214.23437,166.07813 c 0,-1.85156 -0.82421,-2.875 -2.1875,-2.875 -1.36718,0 -2.19531,1.02344 -2.19531,2.875 v 2.76172 h 4.38281 z m -2.1875,11.21094 c -1.91015,0 -3.24609,-1.27735 -3.24609,-3.89844 v -7.3125 c 0,-2.61719 1.33594,-3.89844 3.24609,-3.89844 1.90625,0 3.24219,1.28125 3.24219,3.89844 v 3.78516 h -5.4375 v 3.52734 c 0,1.85156 0.82813,2.875 2.19531,2.875 1.36329,0 2.1875,-1.02344 2.1875,-2.875 v -0.39844 h 1.05469 v 0.39844 c 0,2.62109 -1.33594,3.89844 -3.24219,3.89844"
       id="path356" />
    <path
       fill-rule="nonzero"
       fill="#b3b3b3"
       fill-opacity="1"
       d="m 221.49219,177.06251 -2.19141,-6.31641 -2.19141,6.31641 h -1.14062 l 2.76172,-7.57032 -2.58985,-7.08593 h 1.13672 l 2.05078,6.0039 1.99219,-6.0039 h 1.13672 l -2.58984,7.08593 2.76172,7.57032 z m 0,0"
       id="path358" />
    <path
       fill-rule="nonzero"
       fill="#b3b3b3"
       fill-opacity="1"
       d="m 228.91797,166.07813 c 0,-1.85156 -0.85547,-2.875 -2.22266,-2.875 -1.36328,0 -2.16015,1.02344 -2.16015,2.875 v 7.3125 c 0,1.85156 0.79687,2.875 2.16015,2.875 1.36719,0 2.22266,-1.02344 2.22266,-2.875 z m 0.082,10.98438 v -1.25391 c -0.39453,0.94141 -1.30859,1.48047 -2.33203,1.48047 -1.90625,0 -3.1875,-1.27735 -3.1875,-3.89844 v -7.3125 c 0,-2.61719 1.28125,-3.89844 3.1875,-3.89844 1.02344,0 1.9375,0.53907 2.33203,1.48047 v -1.2539 h 0.96875 v 14.65625 z m 0,0"
       id="path360" />
    <path
       fill-rule="nonzero"
       fill="#b3b3b3"
       fill-opacity="1"
       d="m 235.0625,177.28907 c -1.87891,0 -3.10547,-1.3086 -3.10547,-3.89844 v -7.3125 c 0,-2.58984 1.22656,-3.89844 3.10547,-3.89844 1.84766,0 3.10156,1.28125 3.10156,3.89844 v 0.25781 h -1.05469 v -0.25781 c 0,-1.85156 -0.73828,-2.875 -2.04687,-2.875 -1.33984,0 -2.05078,1.02344 -2.05078,2.875 v 7.3125 c 0,1.85156 0.71094,2.875 2.05078,2.875 1.30859,0 2.04687,-1.02344 2.04687,-2.875 v -0.25391 h 1.05469 v 0.25391 c 0,2.62109 -1.2539,3.89844 -3.10156,3.89844"
       id="path362" />
    <path
       fill-rule="nonzero"
       fill="#b3b3b3"
       fill-opacity="1"
       d="m 243.02734,177.28907 c -1.90625,0 -3.21484,-1.27735 -3.21484,-3.89844 V 158.9336 h 1.05078 v 3.47266 h 5.29297 v 1.02734 h -5.29297 v 9.95703 c 0,1.85156 0.79688,2.875 2.16406,2.875 1.36719,0 2.16407,-1.02344 2.16407,-2.875 v -2.39062 h 1.05078 v 2.39062 c 0,2.62109 -1.3086,3.89844 -3.21485,3.89844"
       id="path364" />
    <path
       fill-rule="nonzero"
       fill="#b3b3b3"
       fill-opacity="1"
       d="m 253.07031,166.07813 c 0,-1.85156 -0.85156,-2.875 -2.21875,-2.875 -1.36719,0 -2.16406,1.02344 -2.16406,2.875 v 7.3125 c 0,1.85156 0.79687,2.875 2.16406,2.875 1.36719,0 2.21875,-1.02344 2.21875,-2.875 z m 0.0859,10.98438 v -1.25391 c -0.39844,0.94141 -1.30859,1.48047 -2.33594,1.48047 -1.90625,0 -3.18359,-1.27735 -3.18359,-3.89844 v -7.3125 c 0,-2.61719 1.27734,-3.89844 3.18359,-3.89844 1.02735,0 1.9375,0.53907 2.33594,1.48047 v -1.2539 h 0.96875 v 14.65625 z m 0,0"
       id="path366" />
    <path
       fill-rule="nonzero"
       fill="#b3b3b3"
       fill-opacity="1"
       d="m 260.78125,166.33594 v -0.74218 c 0,-1.36329 -0.62891,-2.39063 -1.87891,-2.39063 -1.2539,0 -1.99218,0.91016 -1.99218,2.33594 0,1.07812 0.45312,1.84765 1.22265,2.55859 l 2.30469,2.10547 c 0.99609,0.91016 1.625,1.9375 1.625,3.5 0,2.13672 -1.19531,3.58594 -3.21875,3.58594 -2.30469,0 -3.15625,-1.70703 -3.15625,-3.69922 v -0.59766 h 1.05078 v 0.59766 c 0,1.65234 0.74219,2.70312 2.10547,2.70312 1.36719,0 2.13672,-1.02343 2.13672,-2.58984 0,-1.07812 -0.45703,-1.93359 -1.22266,-2.64453 l -2.30859,-2.10547 c -0.9961,-0.91016 -1.6211,-1.85156 -1.6211,-3.41406 0,-2.05078 1.10938,-3.35938 3.07422,-3.35938 1.9375,0 2.92969,1.36719 2.92969,3.41407 v 0.74218 z m 0,0"
       id="path368" />
    <path
       fill-rule="nonzero"
       fill="#b3b3b3"
       fill-opacity="1"
       d="M 6.04687,258.91407 C 1.99609,258.91407 0,256.21485 0,251.30079 v -1.9961 h 1.99609 v 1.9961 c 0,3.5625 1.1875,5.66797 4.05078,5.66797 2.85938,0 4.04688,-2.10547 4.04688,-5.66797 v -28.01953 h 1.99609 v 28.01953 c 0,4.85937 -1.99609,7.61328 -6.04297,7.61328"
       id="path370" />
    <path
       fill-rule="nonzero"
       fill="#b3b3b3"
       fill-opacity="1"
       d="m 26.17969,258.48047 v -2.375 c -0.75782,1.78125 -2.48438,2.8086 -4.42578,2.8086 -3.78125,0 -5.5625,-2.26953 -5.5625,-7.39844 v -20.83984 h 2 v 20.83984 c 0,3.67188 1.07812,5.45313 3.61328,5.45313 2.7539,0 4.21093,-2.21485 4.21093,-6.04688 v -20.24609 h 2 v 27.80468 z m 0,0"
       id="path372" />
    <path
       fill-rule="nonzero"
       fill="#b3b3b3"
       fill-opacity="1"
       d="m 42.26562,237.64063 c 0,-3.50781 -1.61718,-5.44922 -4.21093,-5.44922 -2.58985,0 -4.10157,1.94141 -4.10157,5.44922 v 13.875 c 0,3.51172 1.51172,5.45313 4.10157,5.45313 2.59375,0 4.21093,-1.94141 4.21093,-5.45313 z m 0.16016,20.83984 v -2.375 c -0.75391,1.78125 -2.48047,2.8086 -4.42578,2.8086 -3.61719,0 -6.04688,-2.42969 -6.04688,-7.39844 v -13.875 c 0,-4.96484 2.42969,-7.39453 6.04688,-7.39453 1.94531,0 3.67187,1.02734 4.42578,2.80859 v -2.375 h 1.83594 v 27.80078 z m 0,0"
       id="path374" />
    <path
       fill-rule="nonzero"
       fill="#b3b3b3"
       fill-opacity="1"
       d="m 58.40234,258.48047 v -20.83984 c 0,-3.67187 -1.07812,-5.44922 -3.61328,-5.44922 -2.7539,0 -4.21094,2.21094 -4.21094,6.04688 v 20.24218 h -2 v -27.80468 h 1.83594 v 2.3789 c 0.75781,-1.78125 2.48438,-2.80859 4.42578,-2.80859 3.78125,0 5.5625,2.26562 5.5625,7.39453 v 20.83984 z m 0,0"
       id="path376" />
    <path
       fill-rule="nonzero"
       fill="#b3b3b3"
       fill-opacity="1"
       d="m 77.62109,258.91407 c -4.05078,0 -6.04687,-2.69922 -6.04687,-7.61328 v -1.9961 h 1.99609 v 1.9961 c 0,3.5625 1.1875,5.66797 4.05078,5.66797 2.85938,0 4.04688,-2.10547 4.04688,-5.66797 v -28.01953 h 1.99609 v 28.01953 c 0,4.85937 -1.99609,7.61328 -6.04297,7.61328"
       id="path378" />
    <path
       fill-rule="nonzero"
       fill="#b3b3b3"
       fill-opacity="1"
       d="m 97.75391,237.64063 c 0,-3.50781 -1.56641,-5.44922 -4.15625,-5.44922 -2.59375,0 -4.15625,1.94141 -4.15625,5.44922 v 13.875 c 0,3.51172 1.5625,5.45313 4.15625,5.45313 2.58984,0 4.15625,-1.94141 4.15625,-5.45313 z m -4.15625,21.27344 c -3.61719,0 -6.15625,-2.42969 -6.15625,-7.39844 v -13.875 c 0,-4.96484 2.53906,-7.39453 6.15625,-7.39453 3.61718,0 6.15234,2.42969 6.15234,7.39453 v 13.875 c 0,4.96875 -2.53516,7.39844 -6.15234,7.39844"
       id="path380" />
    <path
       fill-rule="nonzero"
       fill="#b3b3b3"
       fill-opacity="1"
       d="m 111.84375,238.12891 v -1.40234 c 0,-2.59375 -1.1875,-4.53516 -3.5625,-4.53516 -2.375,0 -3.78125,1.72656 -3.78125,4.42578 0,2.05078 0.86328,3.50782 2.32031,4.85938 l 4.375,3.99219 c 1.88672,1.72656 3.07813,3.67187 3.07813,6.64062 0,4.05078 -2.26953,6.80078 -6.10157,6.80078 -4.375,0 -5.99218,-3.23828 -5.99218,-7.01562 v -1.13282 h 1.99609 v 1.13282 c 0,3.1289 1.40234,5.1289 3.99609,5.1289 2.58985,0 4.04688,-1.94531 4.04688,-4.91406 0,-2.05078 -0.86328,-3.66797 -2.32031,-5.01953 l -4.3711,-3.99609 c -1.89062,-1.72657 -3.07812,-3.50782 -3.07812,-6.47657 0,-3.88672 2.10547,-6.37109 5.83203,-6.37109 3.66797,0 5.55859,2.58984 5.55859,6.48047 v 1.40234 z m 0,0"
       id="path382" />
    <path
       fill-rule="nonzero"
       fill="#b3b3b3"
       fill-opacity="1"
       d="m 124.03906,227.81641 h -2.26562 l 4.53515,-5.5039 h 2.58985 z m 3.02344,9.82422 c 0,-3.50781 -1.56641,-5.44922 -4.15625,-5.44922 -2.58984,0 -4.15625,1.94141 -4.15625,5.44922 v 5.23828 h 8.3125 z m -4.15625,21.27344 c -3.61719,0 -6.15625,-2.42969 -6.15625,-7.39844 v -13.875 c 0,-4.96484 2.53906,-7.39453 6.15625,-7.39453 3.61719,0 6.15625,2.42969 6.15625,7.39453 v 7.18359 H 118.75 v 6.69141 c 0,3.51172 1.56641,5.45313 4.15625,5.45313 2.58984,0 4.15625,-1.94141 4.15625,-5.45313 v -0.75391 h 2 v 0.75391 c 0,4.96875 -2.53906,7.39844 -6.15625,7.39844"
       id="path384" />
    <path
       fill-rule="nonzero"
       fill="#b3b3b3"
       fill-opacity="1"
       d="m 152.26953,258.48047 -0.42969,-2.375 c -0.70312,1.78125 -2.3789,2.8086 -4.69922,2.8086 -3.88671,0 -5.77343,-2.75391 -5.77343,-7.61328 v -20.83985 c 0,-4.85547 1.99609,-7.60937 6.04297,-7.60937 4.05078,0 6.04687,2.69531 6.04687,7.60937 v 2 h -1.99609 v -2 c 0,-3.5625 -1.1875,-5.66797 -4.05078,-5.66797 -2.85938,0 -4.04688,2.10547 -4.04688,5.66797 v 20.83985 c 0,3.5625 1.1875,5.66797 4.04688,5.66797 2.86328,0 4.05078,-2.10547 4.05078,-5.66797 v -7.28907 h -2.75391 v -1.88671 h 4.75 v 16.35546 z m 0,0"
       id="path386" />
    <path
       fill-rule="nonzero"
       fill="#b3b3b3"
       fill-opacity="1"
       d="m 157.34375,230.67579 h 1.99609 v 27.80468 h -1.99609 z m 0,-9.66016 h 1.99609 v 4.96484 h -1.99609 z m 0,0"
       id="path388" />
    <path
       fill-rule="nonzero"
       fill="#b3b3b3"
       fill-opacity="1"
       d="m 173.58984,237.64063 c 0,-3.50781 -1.61718,-5.44922 -4.21093,-5.44922 -2.58985,0 -4.10157,1.94141 -4.10157,5.44922 v 13.875 c 0,3.51172 1.51172,5.45313 4.10157,5.45313 2.59375,0 4.21093,-1.94141 4.21093,-5.45313 z m 0.16407,20.83984 v -2.375 c -0.75782,1.78125 -2.48438,2.8086 -4.42969,2.8086 -3.61719,0 -6.04688,-2.42969 -6.04688,-7.39844 v -13.875 c 0,-4.96484 2.42969,-7.39453 6.04688,-7.39453 1.94531,0 3.67187,1.02734 4.42969,2.80859 v -2.375 h 1.83203 v 27.80078 z m 0,0"
       id="path390" />
    <path
       fill-rule="nonzero"
       fill="#b3b3b3"
       fill-opacity="1"
       d="m 199.12109,258.48047 v -20.83984 c 0,-3.67187 -0.96875,-5.44922 -3.50781,-5.44922 -2.75391,0 -4.10156,2.21094 -4.10156,6.04688 v 20.24218 h -1.9961 v -20.83984 c 0,-3.67187 -0.97265,-5.44922 -3.51171,-5.44922 -2.75391,0 -4.10157,2.21094 -4.10157,6.04688 v 20.24218 h -2 v -27.80468 h 1.83594 v 2.3789 c 0.75781,-1.78125 2.375,-2.80859 4.32031,-2.80859 2.58985,0 3.9961,1.24219 4.69532,3.23828 0.75781,-1.99609 2.64843,-3.23828 4.91406,-3.23828 3.77734,0 5.45312,2.26562 5.45312,7.39453 v 20.83984 z m 0,0"
       id="path392" />
    <path
       fill-rule="nonzero"
       fill="#b3b3b3"
       fill-opacity="1"
       d="m 215.53125,237.64063 c 0,-3.50781 -1.51172,-5.44922 -4.10156,-5.44922 -2.59375,0 -4.21094,1.94141 -4.21094,5.44922 v 13.875 c 0,3.51172 1.61719,5.45313 4.21094,5.45313 2.58984,0 4.10156,-1.94141 4.10156,-5.45313 z m -4.05078,21.27344 c -1.94141,0 -3.66797,-1.02735 -4.42578,-2.8086 v 2.375 h -1.83594 V 221.1211 h 2 v 11.60937 c 0.64453,-1.5664 2.375,-2.48437 4.21094,-2.48437 3.61718,0 6.09765,2.42969 6.09765,7.39453 v 13.875 c 0,4.96875 -2.42968,7.39844 -6.04687,7.39844"
       id="path394" />
    <path
       fill-rule="nonzero"
       fill="#b3b3b3"
       fill-opacity="1"
       d="m 221.46875,230.67579 h 1.99609 v 27.80468 h -1.99609 z m 0,-9.66016 h 1.99609 v 4.96484 h -1.99609 z m 0,0"
       id="path396" />
    <path
       fill-rule="nonzero"
       fill="#b3b3b3"
       fill-opacity="1"
       d="m 237.71484,237.64063 c 0,-3.50781 -1.62109,-5.44922 -4.21093,-5.44922 -2.58985,0 -4.10157,1.94141 -4.10157,5.44922 v 13.875 c 0,3.51172 1.51172,5.45313 4.10157,5.45313 2.58984,0 4.21093,-1.94141 4.21093,-5.45313 z m 0.16016,20.83984 v -2.375 c -0.75391,1.78125 -2.48047,2.8086 -4.42578,2.8086 -3.61719,0 -6.04688,-2.42969 -6.04688,-7.39844 v -13.875 c 0,-4.96484 2.42969,-7.39453 6.04688,-7.39453 1.94531,0 3.67187,1.02734 4.42578,2.80859 v -2.375 h 1.83594 v 27.80078 z m 0,0"
       id="path398" />
    <path
       fill-rule="nonzero"
       fill="#b3b3b3"
       fill-opacity="1"
       d="m 253.90625,237.64063 c 0,-3.50781 -1.5625,-5.44922 -4.15625,-5.44922 -2.58984,0 -4.10156,1.94141 -4.10156,5.44922 v 13.875 c 0,3.51172 1.51172,5.45313 4.10156,5.45313 2.59375,0 4.15625,-1.94141 4.15625,-5.45313 z m -4.04688,31.36719 c -3.78125,0 -5.88671,-2.53516 -5.9375,-6.15235 h 1.9961 c 0.0547,2.91407 1.72656,4.21094 3.9414,4.21094 2.58985,0 4.10157,-1.94531 4.10157,-5.45312 v -5.1836 c -0.64844,1.56641 -2.375,2.48438 -4.21094,2.48438 -3.61719,0 -6.10156,-2.42969 -6.10156,-7.39844 v -13.875 c 0,-4.96484 2.42968,-7.39453 6.04687,-7.39453 1.94531,0 3.67188,1.02734 4.42969,2.80859 v -2.375 h 1.83203 v 30.9336 c 0,4.96484 -2.48047,7.39453 -6.09766,7.39453"
       id="path400" />
    <path
       fill-rule="nonzero"
       fill="#b3b3b3"
       fill-opacity="1"
       d="m 260.27344,230.67579 h 2 v 27.80468 h -2 z m 0,-9.66016 h 2 v 4.96484 h -2 z m 0,0"
       id="path402" />
  </g>
  <g
     id="g976"
     inkscape:label="logo">
    <g
       id="g982"
       inkscape:label="logo4">
      <path
         fill-rule="nonzero"
         fill="#04667c"
         fill-opacity="1"
         d="m 124.63672,104.79297 c -0.008,6.1836 -2.48438,11.69532 -6.52735,15.75782 -4.0664,4.04297 -9.57421,6.51562 -15.75781,6.52734 -6.18359,-0.0117 -11.6914,-2.48437 -15.75,-6.52734 -4.05078,-4.0625 -6.51562,-9.57422 -6.52734,-15.75782 0.0117,-6.179688 2.47656,-11.687508 6.52734,-15.750008 4.0586,-4.05078 9.56641,-6.51953 15.75,-6.52734 h 22.28516 z M 195.07031,12.085932 C 187.63281,4.6328126 177.25391,-0.00390741 165.89844,2.5858965e-6 h -0.008 C 154.52716,-0.00399741 144.15607,4.6328126 136.72248,12.082032 c -7.45704,7.4375 -12.09375,17.8164 -12.08594,29.17187 v 22.28516 h -22.28516 c -11.35937,-0.0117 -21.73437,4.625 -29.16797,12.08203 -7.45312,7.4375 -12.08984,17.8125 -12.08593,29.171878 -0.004,11.36719 4.63281,21.74219 12.08593,29.17188 7.4336,7.45312 17.8086,12.09375 29.16797,12.08984 h 0.0195 c 11.35547,0 21.72657,-4.63672 29.16016,-12.08984 7.44531,-7.42969 12.08203,-17.80078 12.08203,-29.16016 V 82.515622 h 27.49609 c 5.24219,0 9.48829,-4.25 9.48829,-9.48828 0,-5.24219 -4.2461,-9.48828 -9.48829,-9.48828 h -27.49609 v -22.28516 c 0.004,-6.17969 2.47656,-11.6875 6.52734,-15.75 4.0586,-4.04687 9.57032,-6.52344 15.75,-6.52734 0.81641,0 2.47657,0.14453 2.47657,0.14453 5.17187,0.57031 9.76562,2.88281 13.28125,6.38281 4.05078,4.0586 6.51953,9.56641 6.52734,15.75 v 3.53906 c 0,5.24219 4.24609,9.49219 9.48438,9.49219 5.24609,0 9.49218,-4.25 9.49218,-9.49219 v -3.53906 c 0.008,-11.35547 -4.6289,-21.73437 -12.08203,-29.16797 m 2.58985,51.45313 c -5.2461,0 -9.49219,4.25 -9.49219,9.49219 0,5.24218 4.24609,9.49218 9.49219,9.49218 5.24218,0 9.49218,-4.25 9.49218,-9.49218 0,-5.24219 -4.25,-9.49219 -9.49218,-9.49219"
         id="path404"
         inkscape:label="logo2" />
      <g
         clip-path="url(#clip-0)"
         id="g408"
         transform="translate(-165.71875,-287.4414)"
         inkscape:label="logo3">
        <path
           fill-rule="nonzero"
           fill="url(#linear-pattern-0)"
           d="m 268.89844,350.98047 v 18.97656 h 60.02734 v -18.97656 z m 0,0"
           id="path406"
           style="fill:url(#linear-pattern-0)" />
      </g>
    </g>
  </g>
</svg>
