<?xml version="1.0" encoding="UTF-8" standalone="no"?>
<svg
   xmlns:dc="http://purl.org/dc/elements/1.1/"
   xmlns:cc="http://creativecommons.org/ns#"
   xmlns:rdf="http://www.w3.org/1999/02/22-rdf-syntax-ns#"
   xmlns:svg="http://www.w3.org/2000/svg"
   xmlns="http://www.w3.org/2000/svg"
   xmlns:sodipodi="http://sodipodi.sourceforge.net/DTD/sodipodi-0.dtd"
   xmlns:inkscape="http://www.inkscape.org/namespaces/inkscape"
   viewBox="0 0 771.02289 770.95144"
   height="203.9809mm"
   width="203.9998mm"
   xml:space="preserve"
   id="svg2"
   version="1.1"
   sodipodi:docname="SI_Illustration_Base_Units_and_Constants_Colour_Full.svg"
   inkscape:version="0.92.3 (2405546, 2018-03-11)"><sodipodi:namedview
     pagecolor="#ffffff"
     bordercolor="#666666"
     borderopacity="1"
     objecttolerance="10"
     gridtolerance="10"
     guidetolerance="10"
     inkscape:pageopacity="0"
     inkscape:pageshadow="2"
     inkscape:window-width="1718"
     inkscape:window-height="957"
     id="namedview48"
     showgrid="false"
     inkscape:snap-global="false"
     fit-margin-top="2"
     fit-margin-left="2"
     fit-margin-right="2"
     fit-margin-bottom="2"
     inkscape:zoom="0.54115914"
     inkscape:cx="278.15869"
     inkscape:cy="333.86639"
     inkscape:window-x="55"
     inkscape:window-y="27"
     inkscape:window-maximized="0"
     inkscape:current-layer="svg2"
     units="mm" /><metadata
     id="metadata8"><rdf:RDF><cc:Work
         rdf:about=""><dc:format>image/svg+xml</dc:format><dc:type
           rdf:resource="http://purl.org/dc/dcmitype/StillImage" /><dc:title></dc:title></cc:Work></rdf:RDF></metadata><defs
     id="defs6" /><g
     transform="matrix(1.3333333,0,0,-1.3333333,-11.341478,782.32837)"
     id="g10"><g
       transform="scale(0.1)"
       id="g12"><path
         id="path14"
         style="fill:#3a2e91;fill-opacity:1;fill-rule:nonzero;stroke:none"
         d="m 2200.47,4489.45 -492.3,1022.27 C 973.336,5143.46 420.902,4465.26 222.191,3648.48 L 1327.98,3396.1 c 121.18,477.04 444.11,873.25 872.49,1093.35"
         inkscape:connector-curvature="0" /><path
         id="path16"
         style="fill:#f79f0e;fill-opacity:1;fill-rule:nonzero;stroke:none"
         d="m 4677.18,2976.13 c 0,-385.75 -128.61,-741.36 -345.02,-1026.69 l 886.73,-707.15 c 371.14,479.31 592.15,1080.72 592.15,1733.84 0,202.15 -21.32,399.29 -61.55,589.46 L 4643.65,3313.18 c 21.91,-108.96 33.53,-221.64 33.53,-337.05"
         inkscape:connector-curvature="0" /><path
         id="path18"
         style="fill:#d41938;fill-opacity:1;fill-rule:nonzero;stroke:none"
         d="m 2976.4,5810.77 c -425.67,0 -829.33,-94 -1191.63,-262.1 l 492.3,-1022.28 c 213.37,96.42 449.97,150.53 699.33,150.53 249.36,0 485.93,-54.11 699.3,-150.51 L 4168,5548.68 c -362.28,168.1 -765.93,262.09 -1191.6,262.09"
         inkscape:connector-curvature="0" /><path
         id="path20"
         style="fill:#f2592d;fill-opacity:1;fill-rule:nonzero;stroke:none"
         d="M 4624.81,3396.11 5730.6,3648.49 C 5531.88,4465.28 4979.44,5143.48 4244.59,5511.74 L 3752.3,4489.46 c 428.38,-220.09 751.33,-616.3 872.51,-1093.35"
         inkscape:connector-curvature="0" /><path
         id="path22"
         style="fill:#a22a9a;fill-opacity:1;fill-rule:nonzero;stroke:none"
         d="m 1275.61,2976.13 c 0,115.41 11.63,228.09 33.54,337.04 L 203.297,3565.58 c -40.227,-190.16 -61.543,-387.31 -61.543,-589.45 0,-653.11 221.016,-1254.52 592.137,-1733.82 l 886.739,707.14 c -216.42,285.34 -345.02,640.94 -345.02,1026.68"
         inkscape:connector-curvature="0" /><path
         id="path24"
         style="fill:#1a66b5;fill-opacity:1;fill-rule:nonzero;stroke:none"
         d="M 2933.86,142.031 V 1276.42 c -505.75,12.46 -956.65,245.33 -1260.13,606.61 L 786.852,1175.77 C 1298.35,554.41 2069.24,154.762 2933.86,142.031"
         inkscape:connector-curvature="0" /><path
         id="path26"
         style="fill:#57b235;fill-opacity:1;fill-rule:nonzero;stroke:none"
         d="m 3018.9,142.02 c 864.63,12.73 1635.51,412.371 2147.04,1033.73 l -886.89,707.26 C 3975.57,1521.74 3524.66,1288.86 3018.9,1276.42 V 142.02"
         inkscape:connector-curvature="0" /><path
         id="path28"
         style="fill:#e7807c;fill-opacity:1;fill-rule:nonzero;stroke:none"
         d="m 3675.7,4526.41 c -213.37,96.4 -449.94,150.51 -699.3,150.51 -249.36,0 -485.96,-54.11 -699.33,-150.53 l 699.31,-1452.13 699.32,1452.15"
         inkscape:connector-curvature="0" /><path
         id="path30"
         style="fill:#cb89cb;fill-opacity:1;fill-rule:nonzero;stroke:none"
         d="m 1309.15,3313.17 c -21.91,-108.95 -33.54,-221.63 -33.54,-337.04 0,-385.74 128.6,-741.34 345.02,-1026.68 l 1260.2,1004.99 -1571.68,358.73"
         inkscape:connector-curvature="0" /><path
         id="path32"
         style="fill:#aad688;fill-opacity:1;fill-rule:nonzero;stroke:none"
         d="m 3018.9,1276.42 c 505.76,12.44 956.67,245.32 1260.15,606.59 L 3018.9,2887.95 V 1276.42"
         inkscape:connector-curvature="0" /><path
         id="path34"
         style="fill:#fbcb78;fill-opacity:1;fill-rule:nonzero;stroke:none"
         d="m 4643.65,3313.18 -1571.72,-358.74 1260.23,-1005 c 216.41,285.33 345.02,640.94 345.02,1026.69 0,115.41 -11.62,228.09 -33.53,337.05"
         inkscape:connector-curvature="0" /><path
         id="path36"
         style="fill:#8d78c3;fill-opacity:1;fill-rule:nonzero;stroke:none"
         d="M 2200.47,4489.45 C 1772.09,4269.35 1449.16,3873.14 1327.98,3396.1 l 1571.78,-358.75 -699.29,1452.1"
         inkscape:connector-curvature="0" /><path
         id="path38"
         style="fill:#f8a67f;fill-opacity:1;fill-rule:nonzero;stroke:none"
         d="m 4624.81,3396.11 c -121.18,477.05 -444.13,873.26 -872.51,1093.35 L 3053,3037.35 4624.81,3396.11"
         inkscape:connector-curvature="0" /><path
         id="path40"
         style="fill:#83a0d6;fill-opacity:1;fill-rule:nonzero;stroke:none"
         d="m 1673.73,1883.03 c 303.48,-361.28 754.38,-594.15 1260.13,-606.61 V 2887.95 L 1673.73,1883.03"
         inkscape:connector-curvature="0" /><path
         id="path42"
         style="fill:#ec008c;fill-opacity:1;fill-rule:nonzero;stroke:none"
         d="m 786.852,1175.77 c -18.02,21.88 -35.598,44.11 -52.961,66.54"
         inkscape:connector-curvature="0" /><path
         id="path44"
         style="fill:#ffffff;fill-opacity:1;fill-rule:nonzero;stroke:none"
         d="m 3968.53,2976.13 c 0,-547.93 -444.19,-992.12 -992.13,-992.12 -547.94,0 -992.13,444.19 -992.13,992.12 0,547.93 444.19,992.12 992.13,992.12 547.94,0 992.13,-444.19 992.13,-992.12"
         inkscape:connector-curvature="0" /><path
         id="path46"
         style="fill:#393536;fill-opacity:1;fill-rule:nonzero;stroke:none"
         d="m 2428.12,2585.6 74.8,86.76 c 70.3,-73.3 169.03,-122.66 270.75,-122.66 128.63,0 204.92,64.32 204.92,160.05 0,100.22 -70.31,131.63 -163.05,173.52 l -140.6,61.33 c -92.74,38.89 -198.95,109.19 -198.95,252.79 0,149.58 130.14,260.27 308.15,260.27 116.68,0 219.88,-49.36 290.17,-121.16 l -67.3,-80.78 c -59.83,56.85 -131.62,92.75 -222.87,92.75 -109.2,0 -182.5,-55.35 -182.5,-143.6 0,-94.24 85.27,-130.14 163.04,-163.05 l 139.12,-59.83 c 113.68,-49.36 201.94,-116.67 201.94,-261.77 0,-155.56 -127.15,-279.71 -333.58,-279.71 -137.61,0 -258.77,56.84 -344.04,145.09"
         inkscape:connector-curvature="0" /><path
         id="path48"
         style="fill:#393536;fill-opacity:1;fill-rule:nonzero;stroke:none"
         d="m 3298.71,3439.71 h 124.16 v -981.26 h -124.16 v 981.26"
         inkscape:connector-curvature="0" /><path
         id="path50"
         style="fill:#ffffff;fill-opacity:1;fill-rule:nonzero;stroke:none"
         d="m 1053.94,4174.64 c -80.956,55.92 -88.143,144.75 -43.46,209.41 21.49,31.1 48.68,45.13 76.25,52.32 l 17.93,-53.21 c -20.23,-4.99 -35.17,-12.9 -45.74,-28.2 -26.93,-39 -13.61,-88.32 35.25,-122.08 48.38,-33.42 98.89,-28.93 125.14,9.08 12.97,18.76 15.51,42.51 13.71,64.18 l 53.56,-2.72 c 4.04,-36.35 -5.86,-71.8 -24.96,-99.44 -45.71,-66.15 -127.23,-84.93 -207.68,-29.34"
         inkscape:connector-curvature="0" /><path
         id="path52"
         style="fill:#ffffff;fill-opacity:1;fill-rule:nonzero;stroke:none"
         d="m 1390.15,4501.4 -101.76,92.32 c -27.03,-3.01 -45.23,-13.24 -58.53,-27.9 -25.39,-28 -19.75,-74.45 26.03,-115.97 47.09,-42.73 88.54,-47.93 117.17,-16.39 15.31,16.89 20.67,37.96 17.09,67.94 z m -181.8,-104.83 c -71.09,64.51 -73.92,148.89 -30.78,196.44 22.58,24.88 46.02,31.96 76,35.55 l -36.72,30.07 -79.08,71.75 46.35,51.1 313.71,-284.61 -38.3,-42.21 -26.78,17.81 -1.6,-1.78 c 1.46,-30.51 -5.8,-64.42 -27.17,-87.97 -49.59,-54.65 -123.63,-51.45 -195.63,13.85"
         inkscape:connector-curvature="0" /><path
         id="path54"
         style="fill:#ffffff;fill-opacity:1;fill-rule:nonzero;stroke:none"
         d="m 2695.74,5510.2 67.65,4.32 16.88,-264.06 1.8,0.12 100.31,142.28 75.45,4.83 -92.93,-126.18 121.89,-167.15 -74.82,-4.79 -83.62,122.71 -42.73,-55.63 4.78,-74.85 -67.65,-4.32 -27.01,422.72"
         inkscape:connector-curvature="0" /><path
         id="path56"
         style="fill:#ffffff;fill-opacity:1;fill-rule:nonzero;stroke:none"
         d="m 3187.71,5285.37 c 2.73,36.49 -17.79,59.7 -46.52,61.84 -28.71,2.15 -53.01,-17.1 -55.8,-54.18 -2.82,-37.7 18.32,-60.95 47.03,-63.1 28.12,-2.1 52.48,17.73 55.29,55.44 z m 18.46,-236.05 c 1.7,22.74 -16.37,30.72 -49.87,33.22 l -40.09,3 c -16.16,1.21 -28.64,3.34 -39.77,7.18 -16.46,-10.8 -24.63,-23.43 -25.64,-37.19 -1.98,-26.33 25.58,-44.03 72.26,-47.53 47.27,-3.53 81.21,16.21 83.11,41.32 z m -213.58,0.34 c 1.84,24.53 18.4,44.95 46.58,59.7 l 0.18,2.39 c -14.24,10.68 -24.45,27.09 -22.66,51.02 1.7,22.73 18.73,41.32 36.39,52.04 l 0.18,2.39 c -18.64,16.43 -35.08,45.94 -32.48,80.66 5.05,67.6 62.32,101.23 123.94,96.62 16.17,-1.21 30.9,-5.32 42.56,-10.4 l 105.31,-7.88 -3.81,-50.86 -53.86,4.03 c 8.73,-12.09 14.57,-30.57 13.04,-50.92 -4.88,-65.21 -56.52,-96.25 -118.77,-91.59 -12.55,0.93 -26.73,4.4 -39.49,10.77 -9.57,-7.11 -15.49,-13.89 -16.46,-27.05 -1.25,-16.76 9.94,-27.82 45.84,-30.5 l 52.07,-3.9 c 70.6,-5.27 106.09,-29.59 102.28,-80.45 -4.33,-58.05 -68.77,-98.94 -164.51,-91.8 -70,5.25 -120.18,34.26 -116.33,85.73"
         inkscape:connector-curvature="0" /><path
         id="path58"
         style="fill:#ffffff;fill-opacity:1;fill-rule:nonzero;stroke:none"
         d="m 4730.5,4645.88 35.22,-44.81 -28.64,-28.62 1.49,-1.88 c 35.96,-3.02 70.27,-12.68 92.89,-41.45 26.7,-33.96 26.33,-65.52 8.93,-96.77 41.01,-3.62 77.09,-12.64 100.09,-41.88 38.56,-49.04 22.87,-98.01 -35.6,-143.99 l -145.26,-114.22 -43,54.71 138.16,108.65 c 38.2,30.04 43.46,52.48 24.55,76.54 -11.5,14.61 -33.55,23.23 -66.97,25.95 l -161.76,-127.19 -42.64,54.23 138.17,108.65 c 38.2,30.04 43.45,52.49 24.16,77 -11.12,14.15 -33.52,23.24 -66.96,25.96 l -161.75,-127.19 -42.64,54.23 231.56,182.08"
         inkscape:connector-curvature="0" /><path
         id="path60"
         style="fill:#ffffff;fill-opacity:1;fill-rule:nonzero;stroke:none"
         d="m 5086.91,2621.67 35.8,-41.69 c -25.88,-21.04 -43.91,-42.69 -50.76,-71.89 -7.27,-30.94 3.9,-48.99 23.77,-53.64 23.94,-5.62 41.72,22.86 60.52,50.48 22.93,34.68 54.56,72.24 102.45,60.99 50.23,-11.8 76.38,-60.45 61.31,-124.7 -9.34,-39.72 -33.23,-68 -56.82,-87.11 l -33.62,40.56 c 19.26,16.43 34.01,34.54 39.34,57.31 6.72,28.62 -3.55,45.21 -21.66,49.46 -22.77,5.35 -38.24,-21.22 -56.62,-49.55 -23.79,-35.71 -52.62,-74.54 -106.35,-61.93 -49.06,11.53 -79.59,59.98 -62.6,132.4 9.2,39.12 35.88,76.61 65.24,99.31"
         inkscape:connector-curvature="0" /><path
         id="path62"
         style="fill:#ffffff;fill-opacity:1;fill-rule:nonzero;stroke:none"
         d="m 774.859,2010.54 -18.457,53.92 36.465,17.56 -0.781,2.27 c -32.93,14.72 -62.129,35.16 -73.984,69.78 -14.004,40.87 -3.243,70.57 23.515,94.3 -37.519,16.96 -68.613,37.39 -80.664,72.57 -20.215,59.03 10.762,100.08 81.133,124.18 l 174.824,59.86 22.539,-65.84 -166.289,-56.95 c -45.976,-15.74 -58.34,-35.2 -48.418,-64.15 6.016,-17.59 23.965,-32.99 54.629,-46.6 l 194.688,66.67 22.343,-65.27 -166.308,-56.95 c -45.957,-15.75 -58.34,-35.19 -48.223,-64.71 5.84,-17.02 23.984,-33.01 54.649,-46.6 l 194.67,66.66 22.36,-65.28 -278.691,-95.42"
         inkscape:connector-curvature="0" /><path
         id="path64"
         style="fill:#ffffff;fill-opacity:1;fill-rule:nonzero;stroke:none"
         d="m 737.438,2738.83 c -58.809,-8.39 -93.692,-40.03 -87.598,-82.81 6.113,-42.77 48.359,-62.8 107.168,-54.41 58.222,8.29 93.203,39.35 87.09,82.12 -6.094,42.77 -48.438,63.41 -106.66,55.1 z m 29.57,-207.32 c -97.422,-13.9 -162.676,44.07 -173.008,116.56 -10.43,73.06 36.016,146.97 133.438,160.86 96.835,13.82 162.089,-44.17 172.5,-117.23 10.332,-72.47 -36.094,-146.38 -132.93,-160.19"
         inkscape:connector-curvature="0" /><path
         id="path66"
         style="fill:#ffffff;fill-opacity:1;fill-rule:nonzero;stroke:none"
         d="m 798.141,2885.01 -347.832,-10.73 -2.129,68.96 351.445,10.84 c 16.777,0.52 22.539,8.5 22.324,15.7 -0.097,2.99 -0.176,5.4 -1.543,10.76 l 51.309,10.59 c 3.867,-8.29 6.621,-20.21 7.129,-36.4 1.504,-49.18 -29.727,-68.15 -80.703,-69.72"
         inkscape:connector-curvature="0" /><path
         id="path68"
         style="fill:#ffffff;fill-opacity:1;fill-rule:nonzero;stroke:none"
         d="m 1989.53,1188.86 62.54,-30.54 -78.23,-160.121 1.62,-0.777 203.83,98.748 69.55,-33.99 -175.52,-84.532 21.62,-276.988 -69.01,33.699 -14.31,212.68 -81.51,-38.328 -50.29,-102.969 -62.54,30.547 172.25,352.571"
         inkscape:connector-curvature="0" /><path
         id="path70"
         style="fill:#ffffff;fill-opacity:1;fill-rule:nonzero;stroke:none"
         d="m 3913.02,919.441 90.57,42.879 -33.01,37.481 c -29.1,32.009 -58.65,67.809 -87.44,101.979 l -2.17,-1.02 c 8.97,-44.21 17.66,-89.22 24.01,-132.018 z m -89.86,213.689 73.75,34.92 283.4,-299.98 -66.16,-31.32 -73.1,82.902 -119.3,-56.492 17.78,-109.078 -63.99,-30.293 -52.38,409.341"
         inkscape:connector-curvature="0" /><path
         id="path72"
         style="fill:#393536;fill-opacity:1;fill-rule:nonzero;stroke:none"
         d="m 1697.71,3766 23.98,35.94 85.41,-85.35 0.88,1.33 -35,160.9 26.41,39.6 33.03,-137.93 163.75,-38.55 -24.87,-37.27 -134.02,34.1 13.75,-65.91 59.45,-59.38 -23.98,-35.94 -188.79,188.46"
         inkscape:connector-curvature="0" /><path
         id="path74"
         style="fill:#393536;fill-opacity:1;fill-rule:nonzero;stroke:none"
         d="m 2070.31,3708.57 c -28.81,25.18 -27.66,59.8 -7.56,82.81 9.67,11.06 20.8,15.28 31.78,16.85 l 4.57,-21.35 c -8.03,-1.04 -14.16,-3.43 -18.91,-8.87 -12.13,-13.88 -9.16,-33.52 8.22,-48.72 17.23,-15.04 36.92,-15.53 48.75,-2.01 5.82,6.68 7.85,15.74 8.13,24.19 l 20.56,-3.42 c -0.03,-14.21 -5.43,-27.47 -14.02,-37.31 -20.58,-23.53 -52.89,-27.19 -81.52,-2.17"
         inkscape:connector-curvature="0" /><path
         id="path76"
         style="fill:#393536;fill-opacity:1;fill-rule:nonzero;stroke:none"
         d="m 2202.83,3812.8 -37,38.51 c -10.56,-0.45 -17.91,-3.94 -23.45,-9.27 -10.59,-10.18 -9.63,-28.34 7.01,-45.66 17.13,-17.83 33.07,-20.95 45,-9.47 6.41,6.13 9.02,14.17 8.44,25.89 z m -73.28,-35.82 c -25.86,26.9 -24.71,59.71 -6.72,77 9.41,9.04 18.69,11.17 30.43,11.76 l -13.44,12.64 -28.77,29.93 19.34,18.58 114.08,-118.71 -15.98,-15.36 -9.9,7.63 -0.68,-0.65 c -0.24,-11.87 -3.95,-24.83 -12.88,-33.39 -20.68,-19.88 -49.31,-16.67 -75.48,10.57"
         inkscape:connector-curvature="0" /><path
         id="path78"
         style="fill:#393536;fill-opacity:1;fill-rule:nonzero;stroke:none"
         d="m 2940.23,4500.67 42.79,-0.22 -17.63,-83.11 -7.74,-28.35 h 1.6 c 20.08,17.09 41.35,30.18 64.94,30.06 32.8,-0.17 46.31,-18.23 46.14,-49.82 -0.04,-9.2 -0.88,-17.2 -3.34,-27.58 l -25.43,-123.85 -42.8,0.21 24.61,118.26 c 1.64,9.19 3.28,14.78 3.3,20.78 0.08,16.8 -7.87,25.23 -24.66,25.32 -13.6,0.07 -28.83,-9.05 -49.75,-30.14 l -27.07,-133.83 -43.18,0.21 58.22,282.06"
         inkscape:connector-curvature="0" /><path
         id="path80"
         style="fill:#393536;fill-opacity:1;fill-rule:nonzero;stroke:none"
         d="m 3961.46,3853.03 c 55.33,43.51 130.94,37.33 168.75,-10.77 14.84,-18.86 16.43,-38.98 13.03,-55.38 l -35.26,2.79 c 2.48,13.65 1.31,22.91 -6.83,33.28 -21.76,27.66 -72.85,26.66 -111.21,-3.51 -23.29,-18.29 -28.64,-39.3 -12.31,-60.05 9.4,-11.94 22.46,-16.92 34.94,-19.84 l -10.02,-31.27 c -17.63,4.96 -39.41,13.26 -57.71,36.53 -26.72,33.95 -23.28,76.82 16.62,108.22"
         inkscape:connector-curvature="0" /><path
         id="path82"
         style="fill:#393536;fill-opacity:1;fill-rule:nonzero;stroke:none"
         d="m 4229.64,2719.2 107.72,16.89 84.22,11.8 0.25,1.58 -76.15,37.55 -96.86,49.83 z m 16.18,168.81 217.24,-119.33 -8.81,-54.08 -243.85,-43.75 -27.63,4.5 35.41,217.17 27.64,-4.51"
         inkscape:connector-curvature="0" /><path
         id="path84"
         style="fill:#393536;fill-opacity:1;fill-rule:nonzero;stroke:none"
         d="m 4149.72,2598.5 135.2,0.12 c 8.92,0.01 18.02,0.93 27.3,2.76 9.28,1.84 15.22,6.63 17.81,14.41 1.25,3.71 1.82,8.05 1.7,13.04 l 7.37,0.41 3.38,-52.45 -2.74,-8.14 -158.73,-0.85 51.52,-50.9 c 9.24,-9.29 17.02,-14.99 23.3,-17.1 5.06,-1.71 12.5,-3.04 22.35,-4.01 7.21,-0.63 12.48,-1.51 15.8,-2.63 12.23,-4.1 16.11,-12.77 11.68,-25.97 -3.95,-11.72 -11.47,-15.73 -22.58,-12 -10.98,3.7 -29.22,18.9 -54.73,45.61 l -82.38,86.59 3.75,11.11"
         inkscape:connector-curvature="0" /><path
         id="path86"
         style="fill:none;stroke:#393536;stroke-width:5;stroke-linecap:butt;stroke-linejoin:miter;stroke-miterlimit:10;stroke-dasharray:none;stroke-opacity:1"
         d="m 4149.72,2598.5 135.2,0.12 c 8.92,0.01 18.02,0.93 27.3,2.76 9.28,1.84 15.22,6.63 17.81,14.41 1.25,3.71 1.82,8.05 1.7,13.04 l 7.37,0.41 3.38,-52.45 -2.74,-8.14 -158.73,-0.85 51.52,-50.9 c 9.24,-9.29 17.02,-14.99 23.3,-17.1 5.06,-1.71 12.5,-3.04 22.35,-4.01 7.21,-0.63 12.48,-1.51 15.8,-2.63 12.23,-4.1 16.11,-12.77 11.68,-25.97 -3.95,-11.72 -11.47,-15.73 -22.58,-12 -10.98,3.7 -29.22,18.9 -54.73,45.61 l -82.38,86.59 z"
         inkscape:connector-curvature="0" /><path
         id="path88"
         style="fill:#393536;fill-opacity:1;fill-rule:nonzero;stroke:none"
         d="m 1547.69,2518.04 -11.27,40.88 132.56,89.59 50.33,29.62 -0.43,1.54 c -26.68,-4.03 -60.08,-10.74 -89.06,-12.5 l -120.78,-8.77 -11.04,40.1 266.08,18.92 11.15,-40.49 -132.27,-89.11 -51.11,-29.83 0.43,-1.54 c 27.83,4.35 59.53,9.76 88.5,11.52 l 121.95,9.09 10.94,-39.71 -265.98,-19.31"
         inkscape:connector-curvature="0" /><path
         id="path90"
         style="fill:#393536;fill-opacity:1;fill-rule:nonzero;stroke:none"
         d="m 1820.83,2813.71 -4.76,38.65 -17.87,-7.6 c -15.35,-6.84 -32.17,-13.37 -48.3,-19.83 l 0.13,-0.92 c 17.39,-2.08 35.06,-4.37 51.63,-7.25 z m -89.8,-7.09 -3.91,31.47 145.28,67.98 3.49,-28.23 -39.51,-16.86 6.29,-50.9 42.42,-6.76 3.36,-27.31 -157.42,30.61"
         inkscape:connector-curvature="0" /><path
         id="path92"
         style="fill:#393536;fill-opacity:1;fill-rule:nonzero;stroke:none"
         d="m 2432.63,1917.71 38.46,-18.79 -109.96,-143.92 1.44,-0.71 118.21,44.18 43.1,-21.07 -108.03,-40.69 -7.3,-121.54 -38.83,18.98 8.13,93.08 -51.55,-17.99 -29.88,-39.26 -38.81,18.97 175.02,228.76"
         inkscape:connector-curvature="0" /><path
         id="path94"
         style="fill:#393536;fill-opacity:1;fill-rule:nonzero;stroke:none"
         d="m 3598.94,1768.11 c -1.13,5.22 -2.81,10.62 -5.55,16.4 -8.2,17.36 -22.79,29.48 -44.49,19.22 -21.33,-10.1 -34.1,-38.26 -28.42,-72.75 z m -59.53,67.85 c 41.21,19.51 69.92,-1.87 87.36,-38.75 7.37,-15.54 10,-34.2 10.2,-41.2 l -108.11,-51.15 c 13.83,-39.48 42.33,-45.47 69.08,-32.81 12.66,5.98 23.15,19.36 29.48,31.21 l 26.27,-18.11 c -9.67,-16.96 -26.53,-35.56 -51.86,-47.54 -42.3,-20.02 -84.22,-6.23 -106.8,41.5 -31.3,66.17 -2.26,134.78 44.38,156.85"
         inkscape:connector-curvature="0" /></g></g></svg>