<?xml version="1.0" encoding="UTF-8" standalone="no"?>
<!-- Created with Inkscape (http://www.inkscape.org/) -->

<svg
   xmlns:dc="http://purl.org/dc/elements/1.1/"
   xmlns:cc="http://creativecommons.org/ns#"
   xmlns:rdf="http://www.w3.org/1999/02/22-rdf-syntax-ns#"
   xmlns:svg="http://www.w3.org/2000/svg"
   xmlns="http://www.w3.org/2000/svg"
   xmlns:sodipodi="http://sodipodi.sourceforge.net/DTD/sodipodi-0.dtd"
   xmlns:inkscape="http://www.inkscape.org/namespaces/inkscape"
   width="2500"
   height="1000"
   viewBox="0 0 661.45832 264.58334"
   version="1.1"
   id="svg16817"
   inkscape:version="0.92.3 (2405546, 2018-03-11)"
   sodipodi:docname="diapo_01.svg">
  <defs
     id="defs16811" />
  <sodipodi:namedview
     id="base"
     pagecolor="#ffffff"
     bordercolor="#666666"
     borderopacity="1.0"
     inkscape:pageopacity="0.0"
     inkscape:pageshadow="2"
     inkscape:zoom="0.24748738"
     inkscape:cx="763.69927"
     inkscape:cy="757.34662"
     inkscape:document-units="mm"
     inkscape:current-layer="layer1"
     showgrid="false"
     units="px"
     inkscape:window-width="1555"
     inkscape:window-height="845"
     inkscape:window-x="45"
     inkscape:window-y="27"
     inkscape:window-maximized="1"
     showguides="false" />
  <metadata
     id="metadata16814">
    <rdf:RDF>
      <cc:Work
         rdf:about="">
        <dc:format>image/svg+xml</dc:format>
        <dc:type
           rdf:resource="http://purl.org/dc/dcmitype/StillImage" />
        <dc:title></dc:title>
      </cc:Work>
    </rdf:RDF>
  </metadata>
  <g
     inkscape:label="Capa 1"
     inkscape:groupmode="layer"
     id="layer1"
     transform="translate(0,-32.41665)">
    <g
       id="g17512"
       transform="matrix(1.20306,0,0,1.20306,-94.277523,-1.2557076)">
      <circle
         style="fill:#ffffff;fill-opacity:0.50196078;stroke:none;stroke-width:10.18292618;stroke-linecap:round;stroke-linejoin:round;stroke-miterlimit:4;stroke-dasharray:none;stroke-dashoffset:0;stroke-opacity:1"
         id="path852"
         cx="548.70972"
         cy="140.38542"
         r="44.63401" />
      <path
         style="fill:#0065fd;stroke-width:0.33059531"
         d="m 555.48449,242.09327 c -0.25688,-0.40911 -0.88954,-1.41329 -1.40589,-2.23152 -1.79483,-2.84411 -1.76026,-2.65667 -0.82314,-4.46303 0.47165,-0.90914 0.94984,-1.72736 1.06265,-1.81828 0.20947,-0.16881 4.26608,-6.34979 9.2213,-14.0503 1.52106,-2.36376 3.87191,-6.00857 5.2241,-8.09958 4.48817,-6.94047 6.70453,-10.3862 8.39944,-13.05852 0.92259,-1.45462 2.98787,-4.65313 4.58952,-7.1078 1.60164,-2.45467 4.54122,-6.99209 6.53237,-10.08316 1.99117,-3.09106 7.24279,-11.23953 11.67027,-18.10771 15.74234,-24.42047 14.51385,-22.40108 14.10008,-23.17759 -0.43839,-0.82273 -3.58365,-5.72673 -4.92192,-7.67414 -0.51166,-0.74455 -2.09156,-3.19947 -3.5109,-5.45538 -1.41934,-2.25591 -2.99402,-4.69648 -3.4993,-5.42348 -0.50528,-0.727 -2.82002,-4.29718 -5.14386,-7.93373 -6.33368,-9.91147 -13.07456,-20.377964 -15.75591,-24.464056 -1.3125,-2.000102 -4.52645,-6.976566 -7.14211,-11.058807 -6.16679,-9.624432 -10.93277,-17.017863 -14.83892,-23.019469 -1.72736,-2.654007 -3.30765,-5.118819 -3.51175,-5.477358 -0.20411,-0.358539 -0.65041,-0.978931 -0.99179,-1.378648 -0.34137,-0.399717 -1.02517,-1.480869 -1.51954,-2.40256 l -0.89885,-1.675802 1.84546,-2.866868 c 1.015,-1.576777 1.96193,-2.866868 2.10429,-2.866868 0.14236,0 1.90421,2.588722 3.91522,5.752715 2.011,3.163993 4.90343,7.664222 6.42762,10.000508 1.52419,2.336286 4.68098,7.223151 7.0151,10.859699 3.97118,6.187095 5.16181,8.030256 10.67765,16.529766 1.17999,1.818274 2.62021,4.049792 3.20048,4.958929 0.58027,0.909138 2.46868,3.810111 4.19647,6.446609 1.72779,2.636498 4.45417,6.876382 6.05863,9.42197 1.60445,2.54558 4.27933,6.71108 5.94418,9.25666 1.66485,2.54559 4.92783,7.6037 7.25107,11.24025 2.32324,3.63654 4.4841,6.98486 4.80191,7.4407 2.51783,3.61134 6.62448,10.41116 6.46637,10.70706 -0.43114,0.80685 -1.77592,2.9166 -5.29044,8.29986 -1.30579,2.0001 -3.23644,4.97546 -4.29035,6.61191 -1.0539,1.63644 -2.87397,4.46303 -4.0446,6.28131 -1.17062,1.81827 -3.7916,5.87486 -5.8244,9.01464 -2.0328,3.13978 -4.27993,6.63582 -4.99364,7.76899 -0.71371,1.13316 -2.95036,4.58935 -4.97034,7.68042 -2.01999,3.09107 -4.55787,7.03342 -5.63975,8.76078 -1.08188,1.72736 -2.05628,3.21503 -2.16534,3.30595 -0.10905,0.0909 -0.97489,1.42982 -1.92409,2.97536 -0.9492,1.54553 -2.83684,4.52089 -4.19476,6.6119 -1.35792,2.09102 -3.84165,5.92855 -5.5194,8.52785 -1.67776,2.59929 -4.61631,7.13671 -6.53012,10.08315 -1.91381,2.94644 -5.02304,7.77464 -6.9094,10.72934 -1.88637,2.95469 -3.5528,5.37217 -3.70318,5.37217 -0.15038,0 -0.4836,-0.33473 -0.74049,-0.74384 z m -8.1841,-12.83909 c -0.61415,-0.95634 -2.00924,-3.11747 -3.1002,-4.8025 -1.09097,-1.68504 -3.01673,-4.67186 -4.27947,-6.63739 -4.37917,-6.81639 -7.85113,-12.17334 -8.42276,-12.99564 -0.316,-0.45457 -1.88817,-2.90924 -3.49371,-5.45482 -1.60554,-2.54559 -4.95164,-7.75246 -7.43578,-11.57084 -2.48413,-3.81837 -5.10094,-7.87316 -5.81512,-9.01063 -0.71419,-1.13747 -2.7862,-4.34143 -4.60448,-7.1199 -1.81827,-2.77848 -4.12417,-6.35172 -5.12423,-7.94054 -1.68805,-2.68187 -5.50808,-8.60788 -8.56456,-13.2862 -2.7281,-4.17569 -5.55844,-8.62478 -5.92775,-9.318 -0.40885,-0.76744 -0.0464,-1.38895 8.25539,-14.15427 5.36821,-8.2545 14.02715,-21.69809 16.69157,-25.91478 1.47711,-2.337666 3.98697,-6.240463 5.57746,-8.67288 3.31787,-5.074192 4.97928,-7.634071 7.37615,-11.365084 1.81344,-2.822821 11.86758,-18.387238 16.93569,-26.217467 1.68338,-2.600825 3.17725,-4.609191 3.3197,-4.463037 0.14245,0.146155 1.70114,2.497254 3.46377,5.224666 1.76263,2.727411 3.59551,5.539065 4.07306,6.248116 1.17009,1.737298 0.99002,1.456718 5.63092,8.77392 2.25579,3.556663 4.35963,6.838578 4.67519,7.293147 0.64833,0.933922 4.02027,6.15426 6.4592,9.999933 0.89349,1.408845 3.01271,4.681739 4.70939,7.273097 1.69668,2.591358 4.21233,6.496769 5.59034,8.678699 1.37801,2.18193 4.43697,6.9425 6.79769,10.57905 5.36523,8.26481 6.77189,10.44048 8.22912,12.72792 0.63709,1.00005 2.75912,4.26609 4.71562,7.25785 1.95651,2.99177 3.635,5.64209 3.72998,5.88961 0.095,0.24752 -0.49803,1.44452 -1.3178,2.66001 -2.0667,3.06432 -7.55342,11.51849 -8.51459,13.11962 -0.4366,0.72731 -2.3506,3.70267 -4.25333,6.61191 -1.90272,2.90924 -4.79917,7.37227 -6.43655,9.91786 -1.63737,2.54558 -3.80716,5.91894 -4.82173,7.49635 -1.01458,1.57741 -3.69385,5.74291 -5.95394,9.25667 -2.26009,3.51376 -5.08355,7.87633 -6.27434,9.6946 -1.1908,1.81828 -4.32536,6.67726 -6.96569,10.79775 -10.64039,16.60532 -13.02985,20.2973 -13.41013,20.7201 -0.32206,0.35808 -0.60927,0.11206 -1.51408,-1.2969 z m 5.32998,-44.95807 c 1.18187,-0.19317 2.64842,-0.41635 3.25899,-0.49594 0.61056,-0.0796 1.22546,-0.216 1.36645,-0.30313 0.14098,-0.0871 0.82011,-0.24802 1.50917,-0.35753 1.72816,-0.27465 6.51573,-1.9937 8.90747,-3.19836 5.25293,-2.64576 11.33869,-7.74837 15.0815,-12.64507 4.34869,-5.68937 7.11599,-12.44006 8.33451,-20.33161 0.42546,-2.75538 0.46944,-10.43671 0.0747,-13.04866 -0.78729,-5.20969 -2.9182,-11.32638 -5.48779,-15.75252 -2.09557,-3.60961 -4.02551,-6.04676 -7.52663,-9.50466 -5.54441,-5.47597 -11.96861,-9.014772 -19.89827,-10.961059 -5.02128,-1.232446 -11.70953,-1.587552 -15.04028,-0.798553 -0.36465,0.08638 -1.1093,0.212315 -1.65479,0.279855 -5.01261,0.620657 -11.84761,3.369517 -16.98864,6.832387 -7.3425,4.94573 -12.66255,11.78604 -16.17977,20.80332 -0.53192,1.36371 -1.0868,3.00016 -1.23306,3.63655 -0.14627,0.6364 -0.30393,1.30585 -0.35035,1.48768 -1.38327,5.41794 -1.66564,13.35344 -0.647,18.18274 0.30682,1.45462 0.63311,3.01669 0.72509,3.47125 0.31424,1.55301 1.87196,5.78249 3.04394,8.26489 5.9691,12.6432 18.1432,21.90618 31.52424,23.98604 0.78536,0.12207 2.17178,0.33539 3.08091,0.47403 2.48864,0.37953 5.69761,0.37095 8.09959,-0.0216 z"
         id="path17516"
         inkscape:connector-curvature="0"
         sodipodi:nodetypes="ccccsccccsccsscccscccccscsccssccccccccsccsccccscsccccccscccsscsscscscccssssssccccscscscccccscscccssccssccccccccc" />
      <path
         style="fill:#080808;stroke-width:0.33059531"
         d="m 544.03489,177.72566 c -3.19712,-0.48261 -4.07159,-0.69244 -7.1078,-1.7055 -11.13154,-3.71413 -19.80257,-12.70358 -23.4519,-24.31309 -1.13972,-3.62577 -1.54966,-6.58573 -1.54966,-11.18921 0,-4.61215 0.40875,-7.5544 1.56153,-11.24024 5.11055,-16.34012 20.4436,-27.17379 37.03379,-26.16645 3.79137,0.23021 6.02385,0.63258 8.88672,1.60167 4.52427,1.53148 10.19407,4.64068 11.87388,6.51141 0.93876,1.04545 0.82059,2.62452 -0.26638,3.5595 -1.29004,1.10964 -2.30039,0.96716 -4.78584,-0.67491 -3.15708,-2.0858 -5.79403,-3.33594 -9.15913,-4.34222 -4.05028,-1.21118 -11.23566,-1.4533 -15.09228,-0.50856 -4.52109,1.10751 -7.50894,2.39923 -11.00144,4.75621 -8.59277,5.79898 -13.71971,15.7083 -13.71971,26.51734 0,10.80393 5.31719,20.83975 14.2156,26.83097 2.72538,1.83497 6.95025,3.6755 9.60576,4.18467 0.44439,0.0852 1.54562,0.32408 2.44717,0.53082 1.85976,0.42648 8.207,0.40861 10.03882,-0.0283 0.66837,-0.15941 1.73503,-0.37935 2.37036,-0.48877 2.66757,-0.45942 7.12112,-2.48128 10.41569,-4.7286 1.09097,-0.74417 2.2852,-1.3534 2.65385,-1.35384 1.59792,-0.002 2.99915,1.90457 2.59204,3.52661 -0.53115,2.11629 -8.58571,6.49827 -14.50256,7.88994 -3.97143,0.9341 -9.88207,1.31002 -13.05851,0.83052 z m -20.64346,-22.56987 c -0.4455,-0.63604 -0.51464,-2.55814 -0.51464,-14.30733 0,-11.74919 0.0691,-13.6713 0.51464,-14.30734 0.72611,-1.03667 2.22284,-0.97615 3.08893,0.1249 0.65899,0.83777 0.67432,1.20285 0.60253,14.34631 -0.0696,12.74115 -0.10847,13.52512 -0.70344,14.18244 -0.83903,0.92695 -2.32504,0.90757 -2.98802,-0.039 z m 9.09662,-0.13632 c -0.66504,-0.84546 -0.68519,-1.22939 -0.68519,-13.05851 v -12.18745 h -1.15708 c -2.07902,0 -3.11642,-1.79049 -1.90092,-3.28091 0.55013,-0.67457 0.81221,-0.70478 5.33709,-0.61517 l 4.75856,0.0942 0.67817,0.90914 0.14899,0.90913 -0.14697,0.90914 c -0.51475,0.69214 -1.00361,0.9334 -2.04812,1.01079 l -1.37198,0.10166 v 12.49238 c 0,11.68255 -0.0392,12.52784 -0.60457,13.0395 -0.91128,0.8247 -2.2149,0.6843 -3.00798,-0.32394 z m 9.44169,0.2582 c -0.5005,-0.55305 -0.55464,-1.9615 -0.55464,-14.42921 0,-12.5532 0.0515,-13.87326 0.56342,-14.43891 0.50188,-0.55457 0.99537,-0.61248 4.51827,-0.53022 3.88304,0.0907 3.96718,0.10885 4.63288,1.00148 l 0.14884,0.90913 -0.14805,0.90914 c -0.16491,1.01267 -0.90153,0.91836 -3.0399,1.00627 l -2.36269,0.0971 v 4.44855 4.44856 h 1.45105 c 1.80825,0 2.92933,0.82239 2.92933,2.14887 0,1.32647 -1.12108,2.14887 -2.92933,2.14887 h -1.45105 v 4.25922 4.25923 l 2.19341,0.13967 c 1.8924,0.12049 2.30071,0.26441 2.97535,1.04873 0.97818,1.1372 0.97529,1.37011 -0.0295,2.3749 -0.76656,0.76657 -1.01981,0.81146 -4.57709,0.81146 -3.24683,0 -3.84205,-0.0844 -4.32028,-0.61287 z m 11.91227,0.012 c -0.51459,-0.56861 -0.56548,-1.86834 -0.56548,-14.44118 0,-16.40018 -0.33894,-15.11536 3.94955,-14.9714 2.75943,0.0926 2.83354,0.1168 3.52975,1.15156 0.61954,0.9208 1.42624,3.20821 2.89181,8.19972 0.21354,0.72731 0.38826,3.25636 0.38826,5.62012 0,2.36376 -0.17472,4.89281 -0.38826,5.62012 -1.46557,4.99151 -2.27227,7.27893 -2.89181,8.19972 -0.69621,1.03476 -0.77032,1.05894 -3.52975,1.15156 -2.41817,0.0812 -2.89894,0.006 -3.38407,-0.53022 z m 5.20044,-4.18643 c 0.29558,-0.45111 0.83233,-2.05037 1.19279,-3.5539 1.59734,-6.66282 0.12607,-17.7758 -2.35337,-17.7758 -0.59809,0 -0.62317,0.44564 -0.62317,11.07495 0,10.6293 0.0251,11.07494 0.62317,11.07494 0.34274,0 0.86501,-0.36909 1.16058,-0.8202 z m 7.35135,4.17446 c -0.50051,-0.55305 -0.55465,-1.9615 -0.55465,-14.42921 0,-12.55319 0.0515,-13.87325 0.56342,-14.4389 0.50188,-0.55458 0.99538,-0.61249 4.51828,-0.53023 3.88304,0.0907 3.96717,0.10885 4.63287,1.00148 l 0.14884,0.90914 -0.14804,0.90913 c -0.61292,0.82282 -0.90153,0.91836 -3.03991,1.00627 l -2.36269,0.0971 v 4.44855 4.44856 h 1.45105 c 1.80825,0 2.92933,0.82239 2.92933,2.14887 0,1.32647 -1.12108,2.14887 -2.92933,2.14887 h -1.45105 v 4.29774 4.29773 l 1.07443,0.0211 c 2.60745,0.0512 3.38186,0.26197 4.12129,1.1216 0.94965,1.10404 0.94389,1.34321 -0.0565,2.34357 -0.76656,0.76656 -1.01981,0.81146 -4.5771,0.81146 -3.24682,0 -3.84204,-0.0844 -4.32027,-0.61287 z m 12.15514,0.35987 c -1.04167,-0.69555 -1.12393,-1.77785 -1.12393,-14.78908 0,-13.01124 0.0823,-14.09354 1.12393,-14.78908 0.20006,-0.13359 2.11178,-0.24516 4.24825,-0.24795 3.44764,-0.004 3.95885,0.0693 4.54568,0.65613 0.36366,0.36366 0.66119,0.95873 0.66119,1.32238 0,1.39654 -1.12514,1.98357 -3.80184,1.98357 h -2.47947 v 4.46304 4.46304 h 1.61636 c 1.81999,0 2.86591,0.65677 3.1819,1.99803 0.29428,1.2491 -0.77442,2.04789 -2.98511,2.23122 l -1.81315,0.15036 v 5.67092 c 0,4.59757 -0.0974,5.80999 -0.51464,6.40567 -0.51275,0.73206 -1.90622,0.9845 -2.65917,0.48175 z"
         id="path17514"
         inkscape:connector-curvature="0"
         sodipodi:nodetypes="ccsscssccscscsccccccccscccsccsccccscsccccccccsccccsccccsccccsssccccccscccscccsccccccssscccscccccccccsssccccccscccsccssscccscccscc" />
    </g>
  </g>
</svg>
